<?xml version="1.0" encoding="UTF-8"?><svg id="b" xmlns="http://www.w3.org/2000/svg" viewBox="0 0 32 32"><rect width="32" height="32" style="fill:#facc15;"/><g style="opacity:.5;"><path d="M20,20c0-2.21,1.79-4,4-4s4,1.79,4,4-1.79,4-4,4c0,2.21-1.79,4-4,4s-4-1.79-4-4,1.79-4,4-4ZM4,4c0-2.21,1.79-4,4-4s4,1.79,4,4-1.79,4-4,4c0,2.21-1.79,4-4,4S0,10.21,0,8s1.79-4,4-4ZM8,7.2c1.77,0,3.2-1.43,3.2-3.2s-1.43-3.2-3.2-3.2-3.2,1.43-3.2,3.2,1.43,3.2,3.2,3.2ZM24,23.2c1.77,0,3.2-1.43,3.2-3.2s-1.43-3.2-3.2-3.2-3.2,1.43-3.2,3.2,1.43,3.2,3.2,3.2Z" style="fill:#eab308; fill-rule:evenodd;"/></g></svg>