<svg xmlns="http://www.w3.org/2000/svg" viewBox="0 0 600 400"><defs><pattern id="a" width="32" height="32" x="0" y="0" patternTransform="rotate(-3 -37878.74907553 30770.9767139)" patternUnits="userSpaceOnUse"><path fill="none" d="M0 0h32v32H0z"/><circle cx="8" cy="8" r="4.8" fill="#06b6d4" opacity=".5"/><circle cx="24" cy="24" r="4.8" fill="#06b6d4" opacity=".5"/></pattern><pattern id="b" width="32" height="32" x="0" y="0" patternTransform="rotate(-3 -37878.74907553 30770.9767139)" patternUnits="userSpaceOnUse"><path fill="none" d="M0 0h32v32H0z"/><circle cx="8" cy="8" r="4.8" fill="#ec4899" opacity=".5"/><circle cx="24" cy="24" r="4.8" fill="#ec4899" opacity=".5"/></pattern></defs><path fill="#fff" d="m548.33 333.21-1.04-19.91c-.07-3.63-2.41-6.64-5.18-8.82 2.81-2.21 4.5-5.67 4.3-9.55l-1.89-36.24c-.16-3.07-1.48-5.87-3.72-7.88l-10.25-9.23c6.97.25 12.87-5.1 12.45-12.11l-.99-19.09c-.15-3.12-1.58-6.14-3.91-8.22l-20.05-18.06c5.12-7.14 4.3-17.37-1.76-23.7-1.39-1.51-3.45-2.52-3.92-4.68 8.17-5.83 9.38-18.87 2.23-25.95-1.33-1.34-2.86-2.45-4-4-3.44-3.67-8.6-5.81-13.64-5.45-.38-.78-.83-1.58-1.29-2.34 1.2-6.74-1.48-13.14-6.92-17.07-3.56-4.96-9.8-8.05-15.91-7.43-5.48-5.02-16.82-15.08-22.49-19.76-3.15-2.67-7.02-3.07-9.04-3.07-1.03 0-74.16 3.89-75.17 3.92l-14.67-13.21c-1.97-1.78-5.67-3.85-9.59-3.85-.19 0-.38 0-.57.01l-15.58.82c1.12-3.71 1.14-9.01-1.4-12.38l.02.02c-.96-1.74-2.84-2.58-4.02-4.02l.02.02c-2.37-3.45-6.11-5.25-10.52-5.26-2.2-.18-6.89 1.5-15.86 5.09-4.87-4.93-9.79-10.05-16.6-12.51-2.22-.88-8.12-2.56-11.47-2.65-2.14-.06-4.41.15-6.68.56l-7.67-6.91c-2.19-1.96-5.06-3.11-7.91-3.1-.65-.05-47.06 2.5-47.72 2.49-6.19.21-11.44 6.13-10.97 12.31.05 1.24.93 20.93 1.36 21.45-1.14.1-9.8.4-10.71.68-2.02-1.84-4.72-2.82-7.43-2.67l-6.83.36c-2.77.15-5.29 1.4-7.07 3.36l-10.17.53-19.5-17.56c-2.72-2.36-6.02-4.69-9.78-4.35-9.44.49-24.84 1.37-34.28 1.83-2.41.24-6.9.06-9.12.85-1.89-.56-8.65.17-10.68.18-5.66.3-10.02 5.12-9.73 10.76.07 3.47 1.08 17.2 1.09 20.36.4 2.93.19 17.29 1.84 19.72-.35 1.23-.5 2.5-.44 3.77l6.46 123.94c.13 5.68 4.41 8.9 8.26 12.3l-3.31 3.52c-2.94 2.64-4.69 6.81-4.48 10.77l2.53 48.59c.14 2.74 1.19 5.27 2.99 7.25-1.52 2.09-2.36 4.67-2.22 7.42l2.32 44.57c.16 3.26 1.64 6.31 4.03 8.48l13.19 11.88-.95 3.19c-1.39 4.39.74 9.5 4.8 11.62 4.07 7.77 15.98 6.48 18.37-1.94l.64-2.17 104.41-5.47c5.81-.43 9.07-3.43 12.06-6.81 3.49 3.14 7.02 7.2 12.22 6.69l42.68-2.24c2.17-.11 4.22-.78 5.94-1.91 1.73.95 3.74 1.4 5.75 1.29l48.54-2.54c.84-.04 1.68-.18 2.48-.41.82.15 1.66.2 2.5.15l42.68-2.24c1.02-.05 3.17-.32 5.34-1.55 1.74.96 3.78 1.42 5.81 1.31 2.34-.2 44.53-1.98 45.11-2.96l36.43-1.91c1.14-.06 3.71-.39 6.17-2.07 2.13 1.51 27.41-.9 30.29-.75 6.04-.32 10.52-5.23 10.21-11.18l-.16-3.02 13.52-.71c5.94-.31 10.51-5.33 10.21-11.18Z"/><path fill="#27272a" d="M512.1 186.82s-.01 0 0 0c-1.07-.98-2.49-1.54-4.03-1.46l-11.76.62-12.09-10.89-3.28-62.99c-.04-.83-.24-1.81-.62-2.77.95-1.12-22.92-21.33-23.8-22.46.09.08.17.17.25.26-.13-.13-.25-.26-.39-.38l-9.92-8.46c-1.99-1.69-4.8-1.68-5.62-1.63l-75.02 3.93c-.57.03-1.1.15-1.62.31l-16.76-15.09c-1.37-1.23-3.81-2.41-5.83-2.31l-69.25 3.63-.97-18.69c-.08-1.59-.83-2.92-1.87-3.86l-22.01-19.82.12.12c-1.18-1.13-2.79-1.75-4.27-1.67l-47.15 2.47c-3.03.16-5.45 2.91-5.29 6.01l1 19.12c.08 1.63.93 3.32 2.21 4.47l-.02-.02 5.38 4.84c-1.77-.01-3.73.3-4.98 1.62-.51-.46-1.03-.93-1.52-1.37s.02.02.03.03c-.82-.75-1.93-1.19-3.13-1.13-1.07.17-13.48.4-14.09 1.06-.75-.3-1.71-.25-2.52-.19l-1.75-1.58c-1.69-2-7.67-.63-9.9-.75-1.95.1-3.54 1.5-3.95 3.33-1.86-.06-13.4.31-15.13.94-.16-.06-.34-.08-.51-.12l-21.48-19.35c.1.09.17.19.26.28-1.52-1.32-3.55-3.29-5.71-3.1-1.1.21-16.66.46-17.14 1.33-2.23-.79-16.26.7-18.6.58-1.85.19-6.26-.11-7.63 1.27-1.64-1.4-8.67-.23-10.7-.31-2.35.12-4.17 2.13-4.05 4.46.33 1.6.22 17.13 1.64 18.06-1.26.99.44 16.53.27 18.09.06 1.18.61 2.21 1.44 2.94-.02-.02-.04-.02-.06-.04l.7.63c-1.03 1.18-1.58 2.72-1.51 4.18l6.46 123.94c.1 1.83.96 3.43 2.24 4.49-.06-.05-.13-.1-.19-.15l8.79 7.92-7.72 8.21c-1.66 1.38-2.77 3.9-2.65 6.13l2.53 48.6c.08 1.61.78 2.99 1.88 3.96-.01-.01-.03-.02-.04-.03l5.2 4.68c-3.7-.14-6.48 3.07-6.27 6.06l2.32 44.57c.1 1.83.96 3.43 2.24 4.49-.07-.05-.13-.1-.2-.16l22.01 19.82c1.13 1.01 2.62 1.6 4.22 1.51l109.91-5.76c5.21-.11 8.78-6.24 12.03-9.21l8.75 7.88c.91.82 2.14 1.28 3.5 1.21l42.68-2.24c3.26-.2 4.12-2.13 5.98-3.84 1.6 1.37 3.3 3.51 5.71 3.23l48.54-2.54c.92-.05 1.76-.33 2.45-.79.74.38 1.6.58 2.52.53l42.68-2.24c.55-.03 2.45-.23 3.82-1.64l1.7-1.73c1.57 1.38 3.25 3.4 5.64 3.13 1.79-.61 43.07-1.09 43.28-3.21.57.19 1.18.28 1.82.25l36.44-1.91c.55-.03 2.45-.23 3.85-1.66l1.95-2.01c1.25 1.22 2.64 2.39 4.59 2.22l26.07-1.37c2.68-.14 4.67-2.28 4.53-4.88l-.47-9.01 19.51-1.02c2.67-.14 4.67-2.28 4.53-4.88l-1.04-19.91c-.07-1.26-.66-2.39-1.56-3.19l-10.17-9.16c4.55-.2 10.95.3 10.84-6.02l-1.89-36.24c-.08-1.52-.73-2.82-1.75-3.74l-21.01-18.92 15.89-.83c3.21-.17 5.5-2.63 5.34-5.73l-.99-19.09c-.08-1.58-.78-3.04-1.93-4.08m-89.31 76.42 5.06 4.56-4.81.25-.25-4.81ZM194.25 55.38c.1.08.2.17.3.25-.1-.08-.2-.16-.3-.25Z"/><path fill="#fff" d="M78.95 45.19c.17 0 .28.13.28.22l.83 15.79c0 .13-.09.22-.26.23l-4.81.25c-.15 0-.26-.08-.26-.21l-.35-6.69c0-.13-.11-.18-.21-.08l-2.12 1.49c-.1.06-.31.07-.42.02l-2.27-1.3c-.11-.05-.21.01-.2.1l.35 6.72c0 .13-.09.22-.26.23l-7.78.41c-.17 0-.28-.08-.28-.21l-.83-15.79c0-.09.09-.24.26-.25l7.88-.41c.17 0 .38.07.49.12l2.16 1.21c.11.09.32.08.42-.02l2.02-1.43c.14-.06.35-.16.45-.17l4.91-.26Zm19.56 7.38c.15 0 .26.08.26.21l.39 7.42c0 .13-.09.22-.24.23l-15.32.8c-.1 0-.31-.02-.43-.11l-2.12-1.69c-.11-.09-.18-.21-.19-.36l-.72-13.72c0-.09.09-.24.26-.25l15.3-.8c.17 0 .32.08.43.16l2.14 1.63c.11.09.16.27.17.41l.17 3.21c0 .09-.09.22-.24.23l-5.5.29c-.1 0-.26-.11-.26-.21l-.06-1.19c0-.15-.12-.23-.28-.22l-2.66.14c-.17 0-.27.11-.26.25l.29 5.53c0 .15.12.23.28.22l2.66-.14c.17 0 .27-.11.26-.25l-.07-1.28c0-.13.14-.23.24-.23l5.5-.29Zm19-1.03c.15 0 .26.08.26.21l.39 7.42c0 .13-.09.23-.24.23l-15.32.8c-.1 0-.31-.02-.43-.11l-2.12-1.69c-.11-.09-.18-.21-.19-.36l-.72-13.72c0-.09.09-.24.26-.25l15.3-.8c.17 0 .32.08.43.16l2.14 1.63c.11.09.16.27.17.41l.17 3.2c0 .09-.09.23-.24.23l-5.5.29c-.1 0-.26-.12-.26-.21l-.06-1.19c0-.15-.12-.23-.28-.22l-2.66.14c-.17 0-.27.1-.26.25l.29 5.53c0 .15.12.23.28.22l2.66-.14c.17 0 .27-.11.26-.25l-.07-1.28c0-.13.13-.23.24-.23l5.5-.29ZM77.01 65.7c.17 0 .38.07.43.16l2.14 1.63c.11.09.16.27.17.41l.6 11.43c0 .15-.09.24-.24.25l-8.68.45c-.17 0-.26.14-.26.23l.09 1.8c0 .13-.14.23-.24.23l-8.47.44c-.17 0-.28-.08-.28-.21l-.83-15.79c0-.09.09-.24.26-.25l15.3-.8Zm-6.23 7.13c0 .15.12.23.28.22l2.66-.14c.17 0 .27-.1.26-.25l-.11-2.14c0-.15-.12-.23-.28-.22l-2.66.14c-.17 0-.27.11-.26.25l.11 2.14Zm24.97.62c0 .15-.13.25-.24.25l-7 .37c-.17 0-.27.14-.26.23l.36 6.87c0 .13-.13.23-.24.23l-6.96.36c-.1 0-.26-.08-.26-.21l-.67-12.86c0-.09.13-.25.24-.25l6.96-.36c.1 0 .26.13.26.22l.07 1.37c0 .13.18.21.28.11l1.7-1.65c.1-.1.3-.2.41-.21l4.81-.25c.1 0 .26.13.26.22l.29 5.53Zm8.45.93c-.1 0-.26.16-.26.25l.04.73c0 .09.18.21.28.21l7.05-.37c.17 0 .28.08.28.22l.24 4.52c0 .13-.09.28-.26.29l-12.44.65c-.15 0-.36-.07-.47-.16l-1.64-1.29c-.11-.09-.22-.26-.23-.41l-.58-11.12c0-.13.13-.28.24-.29l12.5-.66c.15 0 .36.07.43.16l1.68 1.29c.11.09.18.27.19.41l.26 4.95c0 .13-.09.22-.26.23l-7.05.37Zm-.19-3.75c-.1 0-.27.11-.26.25l.03.64c0 .13.18.21.28.21l2.13-.11c.17 0 .27-.11.26-.23l-.03-.64c0-.15-.12-.23-.28-.22l-2.13.11Zm14.94-.79c-.15 0-.25.1-.24.25l.03.64c0 .13.12.21.26.21l7.84-.41c.17 0 .28.08.28.22l.35 6.67c0 .15-.09.34-.15.43l-1.54 1.46c-.1.1-.31.14-.41.15l-12.5.66c-.1 0-.26-.08-.26-.21l-.24-4.52c0-.15.13-.25.24-.25l7.17-.38c.15 0 .24-.14.24-.23l-.04-.73c0-.15-.12-.23-.26-.22l-7.17.38c-.1 0-.26-.08-.26-.21l-.26-5c0-.13.09-.32.19-.38l1.5-1.46c.1-.1.3-.2.45-.21l12.44-.65c.17 0 .28.13.28.22l.15 2.93c0 .09-.09.23-.26.23l-7.84.41Zm16.73 2.89c-.1 0-.26.16-.26.25l.04.73c0 .09.18.21.28.21l7.05-.37c.17 0 .28.08.28.22l.24 4.52c0 .13-.09.28-.26.29l-12.44.65c-.15 0-.36-.07-.47-.16l-1.64-1.29c-.11-.09-.22-.26-.23-.41l-.58-11.12c0-.13.13-.28.24-.29l12.5-.66c.15 0 .36.07.43.16l1.68 1.29c.11.09.18.27.19.41l.26 4.95c0 .13-.09.22-.26.23l-7.05.37Zm-.2-3.75c-.1 0-.27.11-.26.25l.03.64c0 .13.18.21.28.21l2.13-.11c.17 0 .27-.11.26-.23l-.03-.64c0-.15-.12-.23-.28-.22l-2.13.11Zm22.79-3.03c.11.09.18.27.19.41l.58 11.12c0 .13-.09.22-.26.23l-4.39.23c-.15 0-.26-.08-.26-.21l-.36-6.87c0-.09-.18-.21-.28-.21l-2.13.11c-.1 0-.26.14-.26.23l.36 6.87c0 .13-.09.22-.24.23l-6.86.36c-.1 0-.26-.08-.26-.21l-.67-12.82c0-.13.13-.23.24-.23l12.5-.66c.15 0 .31.02.42.11l1.68 1.29Zm15.88 5c.17 0 .28.08.28.21l.29 5.5c0 .13-.09.22-.26.23l-10.45.55c-.15 0-.36-.02-.47-.1l-1.64-1.29c-.11-.09-.18-.27-.19-.41l-.41-7.77c0-.15-.16-.23-.26-.22l-1.53.08c-.1 0-.26-.08-.26-.21l-.15-2.89c0-.13.13-.28.24-.29l1.53-.08c.1 0 .25-.1.24-.23l-.13-2.44c0-.13.09-.28.26-.29l6.84-.36c.1 0 .28.13.29.26l.13 2.44c0 .13.12.21.26.21l5.02-.26c.17 0 .28.13.29.26l.15 2.89c0 .13-.09.23-.26.23l-5.02.26c-.15 0-.25.1-.24.25l.18 3.52c0 .15.12.23.26.22l5.02-.26Zm7.69-4.4c-.15 0-.25.1-.24.25l.03.64c0 .13.12.21.26.21l7.84-.41c.17 0 .28.08.28.22l.35 6.67c0 .15-.09.34-.15.43l-1.54 1.46c-.1.1-.31.14-.41.15l-12.5.66c-.1 0-.26-.08-.26-.21l-.24-4.52c0-.15.13-.25.24-.25l7.17-.38c.15 0 .24-.14.24-.23l-.04-.73c0-.15-.12-.23-.26-.22l-7.17.38c-.1 0-.26-.08-.26-.21l-.26-5c0-.13.09-.32.19-.38l1.5-1.46c.1-.1.3-.2.45-.21l12.44-.65c.17 0 .28.13.28.22l.15 2.93c0 .09-.09.23-.26.23l-7.84.41Zm-40.92 114.64c-.35-.99-1.55-1.65-2.28-1.61l-6.14.32c-1.17.06-1.86.82-1.81 1.83l1.53 29.19c.05 1.01-.62 2.19-1.64 2.25l-59.21 3.1c-1.17.06-1.96-1.05-2.01-2.06l-6.5-123.96c-.04-.72.63-1.91 1.8-1.97l107.01-5.61c1.17-.06 2.67.58 3.44 1.26l14.61 12.93c.77.68 1.57 2.08 1.63 3.23l3.91 74.63c.06 1.15-.63 1.91-1.8 1.97l-5.12.27c-1.02.05-1.42.8-1.37 1.8l10.7 27.99c.81 1.4-.29 2.9-1.75 2.98l-41.23 2.16c-1.17.06-2.25-1.03-2.73-1.73l-11.05-28.98Zm-12.83-48.93c.05 1.01.82 1.69 1.99 1.63l18.57-.97c1.17-.06 1.86-.82 1.81-1.82l-.79-15.1c-.06-1.15-.84-2.12-2.01-2.06l-18.57.97c-1.17.06-1.85 1.11-1.79 2.26l.79 15.1Z"/><path fill="#22d3ee" d="M154.83 208.89c-.07-.05-.15-.13-.22-.21l-10.89-28.56c-.8-2.31-3.31-3.64-5.24-3.54l-6.14.32c-2.79.15-4.79 2.29-4.65 4.98l1.49 28.35-56.87 2.98-6.39-121.99 105.92-5.55c.3 0 1.03.28 1.29.51l14.61 12.93c.24.21.6.87.63 1.15l3.85 73.5-4.02.21c-2.62.14-4.36 2.18-4.21 4.96.02.31.08.62.19.91l10.31 26.96-39.65 2.08Zm-25.9-96.98c-2.75.14-4.78 2.52-4.63 5.41l.79 15.1c.14 2.69 2.35 4.61 5.14 4.46l18.57-.97c2.79-.15 4.79-2.29 4.65-4.98l-.79-15.1c-.15-2.89-2.42-5.04-5.17-4.9l-18.57.97Z"/><path fill="url(#a)" d="M154.83 208.89c-.07-.05-.15-.13-.22-.21l-10.89-28.56c-.8-2.31-3.31-3.64-5.24-3.54l-6.14.32c-2.79.15-4.79 2.29-4.65 4.98l1.49 28.35-56.87 2.98-6.39-121.99 105.92-5.55c.3 0 1.03.28 1.29.51l14.61 12.93c.24.21.6.87.63 1.15l3.85 73.5-4.02.21c-2.62.14-4.36 2.18-4.21 4.96.02.31.08.62.19.91l10.31 26.96-39.65 2.08Zm-25.9-96.98c-2.75.14-4.78 2.52-4.63 5.41l.79 15.1c.14 2.69 2.35 4.61 5.14 4.46l18.57-.97c2.79-.15 4.79-2.29 4.65-4.98l-.79-15.1c-.15-2.89-2.42-5.04-5.17-4.9l-18.57.97Z"/><path fill="#fff" d="M242.96 26.68c.66-.03 1.76.63 1.82 1.63l1 19.13c.05 1.01-.95 2.21-1.61 2.25l-47.16 2.47c-.67.03-1.65-1.07-1.71-2.07l-1-19.13c-.05-1.01.84-1.77 1.5-1.81l47.16-2.47Zm-46.85 38.79c-.05-1.01.84-1.77 1.5-1.81l47.16-2.47c.66-.03 1.76.63 1.82 1.64l4.67 89.16c.05 1.01-.95 2.21-1.61 2.25l-47.16 2.47c-.67.03-1.65-1.07-1.71-2.07l-4.67-89.16Z"/><path fill="#f472b6" d="m203.73 153.63-4.56-87.05 44.49-2.33 4.56 87.05-44.49 2.33Zm-5.48-104.54-.89-17.02 44.49-2.33.89 17.02-44.49 2.33Z"/><path fill="url(#b)" d="m203.73 153.63-4.56-87.05 44.49-2.33 4.56 87.05-44.49 2.33Zm-5.48-104.54-.89-17.02 44.49-2.33.89 17.02-44.49 2.33Z"/><path fill="#fff" d="M357.3 120.21c1.15-.06 1.91.62 1.97 1.77l2.46 47.02c.05 1.01-.61 2.19-1.76 2.25l-85.56 4.48c-1.01.05-2.48-.59-3.24-1.27l-11.35-10.22c-.76-.68-1.55-2.08-1.61-3.23l-4.57-87.29c-.05-1.01.89-2.21 1.61-2.25l85.99-4.51c.72-.04 2.19.61 2.95 1.29l11.35 10.22c.76.68 1.55 2.08 1.61 3.23l1.03 19.7c.06 1.15-.62 1.91-1.77 1.97l-30.2 1.58c-1.01.05-1.76-.63-1.82-1.78l-.35-6.76c-.06-1.15-1.25-1.81-1.97-1.77l-14.67.77c-1.15.06-1.83.82-1.77 1.97l1.85 35.23c.04.72.81 1.69 1.96 1.63l14.67-.77c.72-.04 1.82-1.1 1.78-1.82l-.41-7.91c-.06-1.15.62-1.91 1.63-1.96l30.2-1.58Z"/><path fill="#f472b6" d="M274.26 172.75c-.21-.02-.85-.31-1.08-.51l-11.35-10.22c-.24-.22-.6-.88-.62-1.16l-4.53-86.44 84.52-4.43c.3.09.81.35.99.51l11.35 10.22c.24.22.6.88.62 1.17l.97 18.57-27.8 1.46-.3-5.63c-.15-2.87-2.82-4.73-5.12-4.61l-14.67.77c-2.82.15-4.76 2.3-4.61 5.12l1.85 35.23c.12 2.28 2.2 4.62 5.11 4.47l14.67-.77c2.19-.11 4.75-2.43 4.62-4.98l-.36-6.78 27.8-1.46 2.36 45.06-84.43 4.43Z"/><path fill="url(#b)" d="M274.26 172.75c-.21-.02-.85-.31-1.08-.51l-11.35-10.22c-.24-.22-.6-.88-.62-1.16l-4.53-86.44 84.52-4.43c.3.09.81.35.99.51l11.35 10.22c.24.22.6.88.62 1.17l.97 18.57-27.8 1.46-.3-5.63c-.15-2.87-2.82-4.73-5.12-4.61l-14.67.77c-2.82.15-4.76 2.3-4.61 5.12l1.85 35.23c.12 2.28 2.2 4.62 5.11 4.47l14.67-.77c2.19-.11 4.75-2.43 4.62-4.98l-.36-6.78 27.8-1.46 2.36 45.06-84.43 4.43Z"/><path fill="#fff" d="M453.24 89.28c.66.56 1.1 1.74 1.15 2.69l3.8 72.43c.04.83-.55 1.46-1.56 1.52l-75.03 3.93c-.88.05-2.16-.13-2.82-.69l-9.93-8.45c-.66-.56-1.35-1.72-1.4-2.68l-3.8-72.43c-.04-.83.81-1.48 1.82-1.53l75.02-3.93c.88-.05 2.16.13 2.82.69l9.92 8.45Zm-28.12 42.51c1.01-.05 1.61-.68 1.56-1.64l-1.36-25.89c-.05-.95-.71-1.52-1.72-1.46l-12.86.67c-.63.03-1.61.68-1.56 1.64l1.36 25.89c.05.95 1.09 1.5 1.72 1.47l12.86-.67Z"/><path fill="#f472b6" d="M381.44 166.86c-.32.02-.67-.03-.84-.09l-9.8-8.35c-.12-.12-.33-.46-.36-.62L366.73 87l73.92-3.87c.32-.02.67.03.84.09l9.71 8.28c.07.13.17.42.18.63l3.71 70.87-73.67 3.86Zm29.14-66.38c-2.19.11-4.54 2.11-4.4 4.79l1.36 25.89c.14 2.68 2.68 4.42 4.87 4.3l12.86-.67c2.64-.14 4.53-2.2 4.4-4.79l-1.36-25.89c-.14-2.59-2.23-4.44-4.87-4.3l-12.86.67Z"/><path fill="url(#b)" d="M381.44 166.86c-.32.02-.67-.03-.84-.09l-9.8-8.35c-.12-.12-.33-.46-.36-.62L366.73 87l73.92-3.87c.32-.02.67.03.84.09l9.71 8.28c.07.13.17.42.18.63l3.71 70.87-73.67 3.86Zm29.14-66.38c-2.19.11-4.54 2.11-4.4 4.79l1.36 25.89c.14 2.68 2.68 4.42 4.87 4.3l12.86-.67c2.64-.14 4.53-2.2 4.4-4.79l-1.36-25.89c-.14-2.59-2.23-4.44-4.87-4.3l-12.86.67Z"/><path fill="#fff" d="M129.91 252.09c-1.05.06-1.76.81-1.7 1.96l.38 7.19c.04.72.84 1.69 1.89 1.63l69.53-3.64c1.05-.06 1.84.62 1.9 1.78l3.38 64.57c.06 1.15-.16 2.6-.88 3.36l-13.55 14.41c-.71.76-2.18 1.56-3.38 1.62l-109.92 5.76c-1.2.06-2.01-1.05-2.07-2.05l-2.34-44.58c-.04-.72.66-1.76 1.86-1.83l63.37-3.32c1.2-.06 1.91-.82 1.85-1.97l-.38-7.19c-.05-1.01-.86-2.12-2.07-2.05l-63.37 3.32c-1.2.06-1.99-.62-2.04-1.62l-2.55-48.6c-.05-1.01.62-2.48 1.35-2.95l13.55-14.41c.71-.76 2.18-1.56 3.38-1.62l109.62-5.75c1.05-.06 1.86 1.06 1.9 1.78l1.51 28.76c.05 1.01-.66 1.76-1.71 1.82l-69.53 3.64Z"/><path fill="#f472b6" d="m78.44 347.67-2.23-42.47 62.33-3.27c2.87-.15 4.84-2.31 4.69-5.12l-.38-7.19c-.15-2.84-2.49-5.04-5.22-4.89L75.3 288l-2.48-47.33c.01-.05.11-.29.19-.43.12-.1.24-.2.35-.31l13.55-14.41c.26-.28 1.03-.66 1.35-.68l108.43-5.68 1.38 26.36-68.33 3.58c-2.74.14-4.69 2.34-4.54 5.12l.38 7.19c.12 2.23 2.22 4.62 5.05 4.47l68.33-3.58 3.32 63.44c.03.57-.07 1.05-.14 1.23l-13.47 14.33c-.26.27-1.03.66-1.35.68l-108.88 5.71Z"/><path fill="url(#b)" d="m78.44 347.67-2.23-42.47 62.33-3.27c2.87-.15 4.84-2.31 4.69-5.12l-.38-7.19c-.15-2.84-2.49-5.04-5.22-4.89L75.3 288l-2.48-47.33c.01-.05.11-.29.19-.43.12-.1.24-.2.35-.31l13.55-14.41c.26-.28 1.03-.66 1.35-.68l108.43-5.68 1.38 26.36-68.33 3.58c-2.74.14-4.69 2.34-4.54 5.12l.38 7.19c.12 2.23 2.22 4.62 5.05 4.47l68.33-3.58 3.32 63.44c.03.57-.07 1.05-.14 1.23l-13.47 14.33c-.26.27-1.03.66-1.35.68l-108.88 5.71Z"/><path fill="#fff" d="M304.56 193.57c.76.68 1.55 2.08 1.61 3.23l4.57 87.29c.05 1.01-.6 2.19-1.76 2.25l-30.2 1.58c-1.01.05-1.78-1.06-1.84-2.07l-2.83-53.93c-.04-.72-1.24-1.67-1.96-1.63l-14.67.77c-1.15.06-1.82 1.1-1.78 1.82l2.83 53.93c.05 1.01-.61 2.19-1.61 2.25l-47.17 2.47c-.72.04-1.79-1.06-1.84-2.07l-6.48-123.67c-.05-1.01.92-1.78 1.64-1.82l47.17-2.47c1.01-.05 1.76.63 1.82 1.63l1 19.13c.05 1.01.81 1.69 1.96 1.63l35.23-1.85c.72-.04 2.19.61 2.95 1.29l11.35 10.22Z"/><path fill="#22d3ee" d="m279.9 284.86-2.78-53.09c-.13-2.54-2.92-4.58-5.11-4.47l-14.67.77c-2.91.15-4.74 2.7-4.62 4.98l2.78 53.09-44.63 2.34-6.37-121.56 44.63-2.34.94 17.85c.14 2.69 2.34 4.61 5.11 4.47l35.03-1.84c.3.09.81.35.99.51l11.35 10.22c.24.22.6.88.62 1.17l4.53 86.44-27.8 1.46Z"/><path fill="url(#a)" d="m279.9 284.86-2.78-53.09c-.13-2.54-2.92-4.58-5.11-4.47l-14.67.77c-2.91.15-4.74 2.7-4.62 4.98l2.78 53.09-44.63 2.34-6.37-121.56 44.63-2.34.94 17.85c.14 2.69 2.34 4.61 5.11 4.47l35.03-1.84c.3.09.81.35.99.51l11.35 10.22c.24.22.6.88.62 1.17l4.53 86.44-27.8 1.46Z"/><path fill="#fff" d="M413.13 187.88c.76.68 1.26 2.1 1.32 3.25l4.57 87.29c.05 1.01-.63 1.76-1.78 1.82l-85.56 4.48c-1.01.05-2.46-.16-3.22-.84l-11.35-10.22c-.76-.68-1.55-2.08-1.61-3.23l-4.57-87.29c-.05-1.01.92-1.78 2.07-1.84l85.56-4.48c1.01-.05 2.46.16 3.22.84l11.35 10.22Zm-31.93 51.13c1.15-.06 1.83-.82 1.77-1.97l-1.64-31.21c-.06-1.15-.82-1.83-1.97-1.77l-14.67.77c-.72.04-1.83.82-1.77 1.97l1.64 31.21c.06 1.15 1.25 1.81 1.97 1.77l14.67-.77Z"/><path fill="#f472b6" d="M331.53 281.72c-.45.02-.93-.07-1.13-.15l-11.27-10.15c-.24-.22-.6-.88-.62-1.16L314 184.25l84.72-4.44c.45-.02.93.07 1.13.15l11.27 10.15c.09.12.31.69.34 1.18l4.51 86.02-84.43 4.43Zm33.01-79.88c-2.3.12-4.76 2.25-4.61 5.12l1.64 31.21c.15 2.87 2.82 4.73 5.12 4.61l14.67-.77c2.82-.15 4.76-2.3 4.61-5.12l-1.64-31.21c-.15-2.82-2.3-4.76-5.12-4.61l-14.67.77Z"/><path fill="url(#b)" d="M331.53 281.72c-.45.02-.93-.07-1.13-.15l-11.27-10.15c-.24-.22-.6-.88-.62-1.16L314 184.25l84.72-4.44c.45-.02.93.07 1.13.15l11.27 10.15c.09.12.31.69.34 1.18l4.51 86.02-84.43 4.43Zm33.01-79.88c-2.3.12-4.76 2.25-4.61 5.12l1.64 31.21c.15 2.87 2.82 4.73 5.12 4.61l14.67-.77c2.82-.15 4.76-2.3 4.61-5.12l-1.64-31.21c-.15-2.82-2.3-4.76-5.12-4.61l-14.67.77Z"/><path fill="#fff" d="M510.32 237.54c1-.05 1.66.52 1.7 1.36l1.9 36.24c.04.85-.55 1.48-1.55 1.53l-62.65 3.28c-.88.05-2.14-.13-2.8-.7l-9.87-8.57c-.66-.57-1.1-1.76-1.15-2.73l-2.68-51.22c-.05-.97-.96-1.52-1.59-1.49l-9.15.48c-.63.03-1.54-.52-1.58-1.37l-1-19.09c-.04-.85.78-1.86 1.41-1.89l9.15-.48c.63-.03 1.47-.68 1.43-1.53l-.84-16.07c-.04-.85.53-1.84 1.53-1.9l40.97-2.15c.63-.03 1.68.88 1.72 1.73l.84 16.07c.04.85.7 1.42 1.58 1.37l30.07-1.58c1-.05 1.68.88 1.72 1.73l1 19.09c.04.85-.55 1.48-1.55 1.54l-30.07 1.58c-.88.05-1.47.68-1.42 1.65l1.22 23.19c.05.97.71 1.54 1.59 1.49l30.07-1.58Z"/><path fill="#f472b6" d="M449.56 276.96c-.3.02-.64-.03-.81-.08l-9.66-8.39c-.08-.14-.18-.44-.2-.69l-2.68-51.22c-.14-2.73-2.57-4.44-4.74-4.33l-7.66.4-.86-16.36 7.66-.4c2.13-.11 4.4-2.06 4.27-4.68l-.78-14.88 38.24-2 .78 14.88c.13 2.49 2.21 4.34 4.73 4.21l28.7-1.5.86 16.36-28.7 1.5c-2.56.13-4.4 2.2-4.26 4.8l1.22 23.19c.14 2.6 2.17 4.47 4.74 4.33l28.7-1.5 1.74 33.15-61.28 3.21Z"/><path fill="url(#b)" d="M449.56 276.96c-.3.02-.64-.03-.81-.08l-9.66-8.39c-.08-.14-.18-.44-.2-.69l-2.68-51.22c-.14-2.73-2.57-4.44-4.74-4.33l-7.66.4-.86-16.36 7.66-.4c2.13-.11 4.4-2.06 4.27-4.68l-.78-14.88 38.24-2 .78 14.88c.13 2.49 2.21 4.34 4.73 4.21l28.7-1.5.86 16.36-28.7 1.5c-2.56.13-4.4 2.2-4.26 4.8l1.22 23.19c.14 2.6 2.17 4.47 4.74 4.33l28.7-1.5 1.74 33.15-61.28 3.21Z"/><path fill="#fff" d="M258.67 293.49c.42-.02.73.24.75.62l2.16 41.21c.02.44-.08.83-.36 1.13l-5.59 5.71c-.28.29-.7.42-1.18.45l-42.68 2.24c-.48.03-.79-.24-.81-.62l-.9-17.1c-.01-.28.27-.68.74-.7l23.68-1.24c.42-.02.88-.32.86-.76l-1.52-28.96c-.02-.39.27-.68.69-.7l24.16-1.27Zm-32.54 27.15c.02.39-.45.69-.74.7l-14.81.78c-.48.03-.79-.24-.81-.62l-1.3-24.71c-.02-.39.27-.68.74-.7l14.81-.78c.3-.02.79.23.81.62l1.3 24.71Zm86.01-29.95c.48-.03.8.35.81.62l2.49 47.44c.02.39-.26.68-.74.7l-48.56 2.54c-.42.02-.73-.24-.75-.62l-1.08-20.52c-.02-.44.26-.73.68-.75l21.88-1.15c.48-.03.76-.32.74-.7l-.64-12.3c-.02-.39-.34-.65-.81-.62l-21.88 1.15c-.42.02-.73-.24-.76-.68l-.62-11.86c-.01-.28.26-.68.69-.7l48.56-2.54Zm54.44-2.85c.42-.02.73.24.75.62l2.16 41.21c.02.44-.08.83-.36 1.13l-5.59 5.71c-.28.29-.88.43-1.18.45l-42.68 2.24c-.48.03-.79-.24-.81-.62l-.9-17.1c-.01-.28.27-.68.74-.7l27.58-1.45c.42-.02.7-.31.68-.75l-1.52-28.96c-.02-.39.27-.68.75-.7l20.38-1.07Zm-24.87 12.91c.01.28-.27.68-.74.7l-23.2 1.22c-.48.03-.8-.35-.81-.62l-.57-10.92c-.01-.28.27-.68.74-.7l23.2-1.22c.48-.03.8.35.81.62l.57 10.92Zm.72 13.79c.02.39-.27.68-.74.7l-23.2 1.22c-.48.03-.79-.24-.81-.62l-.43-8.27c-.02-.44.26-.84.74-.87l23.2-1.22c.48-.03.8.34.82.79l.43 8.27Zm69.42-20.88c.42-.02.73.24.76.68l2.07 39.55c.02.39-.26.68-.68.7l-40.46 2.12c-.48.03-.79-.24-.81-.62l-.74-14.07c-.02-.39.27-.68.74-.7l19.6-1.03c.48-.03.88-.49.86-.76l-.12-2.21c-.02-.39-.46-.64-.93-.62l-19.6 1.03c-.48.03-.8-.4-.82-.68l-.36-6.89c-.02-.39.27-.68.74-.7l19.6-1.03c.48-.03.88-.32.86-.76l-.11-2.04c-.02-.44-.46-.69-.94-.67l-19.6 1.03c-.48.03-.79-.24-.81-.62l-.46-8.83c-.02-.44.26-.73.74-.76l40.46-2.12Zm46.79-3.05c.42-.02.73.24.76.68l1.8 34.31c.02.39-.25.95-.54 1.24l-4.39 4.54c-.29.29-.88.43-1.18.45l-36.45 1.91c-.42.02-.73-.24-.75-.62l-.74-14.07c-.02-.39.26-.68.68-.7l23.68-1.24c.48-.03.77-.32.74-.76l-1.26-24.11c-.02-.44.26-.73.68-.76l16.96-.89Zm-31.21 23.93c.02.39-.27.68-.74.7l-8.99.47c-.42.02-.73-.24-.75-.62l-1.13-21.51c-.02-.44.26-.73.68-.76l8.99-.47c.48-.03.79.24.82.68l1.13 21.51Zm11.51-.6c.02.39-.27.68-.69.7l-6.89.36c-.48.03-.79-.24-.81-.62l-1.13-21.51c-.02-.44.26-.73.74-.76l6.89-.36c.42-.02.73.24.76.68l1.13 21.51Zm76.91-.52c.02.37-.27.65-.75.68l-22.78 1.19c-.3.02-.71.3-.69.67l.65 12.37c.02.37-.27.65-.75.68l-26.08 1.37c-.42.02-.73-.23-.75-.6l-2.39-45.66c-.01-.27.27-.65.69-.68l26.08-1.37c.48-.03.8.33.81.6l.56 10.78c.02.37.45.62.75.6l22.78-1.19c.48-.03.8.38.82.65l1.04 19.91Z"/><path fill="#27272a" d="M320.47 53.09c0-1.43-.41-2.88-1.29-4.02-4.27-4.44-7.62-1.97-18.27 2.03-2.01.79-4.33 1.71-6.22 2.42-3.96-9.48-14.5-16.1-25.08-16.86-5.71-.1-13.13 2.11-17.38 5.18-3.38 2.45-5.64 5.15-7.12 8.66-.99-.9-2.06-1.9-3.08-2.85-6.01-5.59-7.01-6.43-8.19-6.88-2.19-.93-5.2-.56-6.76 1.19-1.53 1.54-2 3.44-2.52 5.18-.07.22-5.76 19.78-5.86 21.91-.22 4.24 2.59 7.56 6.5 7.67 2.67-.09 9.41-2.94 19.41-6.76 7.79 16.14 27.41 21.72 42.36 11.68l.03-.02c3.29-2.33 5.12-4.87 7.21-8.67 4.51 4.11 8.73 8.58 10.98 9.58 3.38 1.57 6.98-.16 8.58-3.38.39-.72 1.37-4.18 1.8-5.71 1.76-6.31 4.07-15.48 4.1-15.6.35-1.42.83-3.04.81-4.73Zm194.17 115.85c-.6-1.65-1.52-3.15-2.73-4.44-1.05-1.12-2.29-2.04-3.65-2.71l-3.42-8.93c4.67-1.34 7.82-5.13 8.41-9.78.77-5.71-3.13-11.13-8.59-12.46-3.69-.99-7.59.36-10.88 1.72.07-4.79-1.76-9.38-4.54-13.23 2.58-7.25-1.96-14.17-8.96-15.52-5.03-.94-10.08 2.01-12.62 6.29-5.12.61-8.42 2.48-11.63 4.33-13.72-5.29-22.88 12.81-10.54 20.8.52 5.07 1.97 9.1 4.91 13.06-3.25 1.07-6.82 2.34-8.96 5.06-2.61 3.32-3.29 7.56-1.84 11.35 1.55 4.06 5.43 7.08 9.96 7.42 1.82.06 3.82-.5 5.64-1l3.07 9.01c-3.34 7.14 1.18 16.18 8.91 17.78 6.26 1.54 13-2.2 15.04-8.22 4.62-1.18 9.81-3.06 13.77-4.97 10.32 6.08 22.76-4.27 18.64-15.55Zm-370.1 139.12c-.8-11.83-8.86-21.82-20.57-24.81-10.82-3.08-21.42.97-29.19 9.84-7.95-2.41-10.53 5.42-11.17 9.72-1.43 7.48 1.94 9.29 5.13 10.37.24 3.08.97 6.12 2.2 8.95v.01c2.7 6.21 7.62 11.2 13.79 14.04L92.07 378.9c-.63 2.12.58 4.34 2.7 4.97 2.06.63 4.35-.56 4.97-2.7l12.66-42.71c9.92 1.54 19.53-2.25 26.22-10.12 2.96.89 3.02 1.16 5.05.56 4.14-1.69 7.07-11.78 6.6-14.68-.65-4.01-3.58-5.48-5.73-6.18Z"/><path fill="#fff" d="M316.47 49.09c0-1.43-.41-2.88-1.29-4.02-4.27-4.44-7.62-1.97-18.27 2.03-2.01.79-4.33 1.71-6.22 2.42-3.96-9.48-14.5-16.1-25.08-16.86-5.71-.1-13.13 2.11-17.38 5.18-3.38 2.45-5.64 5.15-7.12 8.66-.99-.9-2.06-1.9-3.08-2.85-6.01-5.59-7.01-6.43-8.19-6.88-2.19-.93-5.2-.56-6.76 1.19-1.53 1.54-2 3.44-2.52 5.18-.07.22-5.76 19.78-5.86 21.91-.22 4.24 2.59 7.56 6.5 7.67 2.67-.09 9.41-2.94 19.41-6.76 7.79 16.14 27.41 21.72 42.36 11.68l.03-.02c3.29-2.33 5.12-4.87 7.21-8.67 4.51 4.11 8.73 8.58 10.98 9.58 3.38 1.57 6.98-.16 8.58-3.38.39-.72 1.37-4.18 1.8-5.71 1.76-6.31 4.07-15.48 4.1-15.6.35-1.42.83-3.04.81-4.73Zm194.17 115.85c-.6-1.65-1.52-3.15-2.73-4.44-1.05-1.12-2.29-2.04-3.65-2.71l-3.42-8.93c4.67-1.34 7.82-5.13 8.41-9.78.77-5.71-3.13-11.13-8.59-12.46-3.69-.99-7.59.36-10.88 1.72.07-4.79-1.76-9.38-4.54-13.23 2.58-7.25-1.96-14.17-8.96-15.52-5.03-.94-10.08 2.01-12.62 6.29-5.12.61-8.42 2.48-11.63 4.33-13.72-5.29-22.88 12.81-10.54 20.8.52 5.07 1.97 9.1 4.91 13.06-3.25 1.07-6.82 2.34-8.96 5.06-2.61 3.32-3.29 7.56-1.84 11.35 1.55 4.06 5.43 7.08 9.96 7.42 1.82.06 3.82-.5 5.64-1l3.07 9.01c-3.34 7.14 1.18 16.18 8.91 17.78 6.26 1.54 13-2.2 15.04-8.22 4.62-1.18 9.81-3.06 13.77-4.97 10.32 6.08 22.76-4.27 18.64-15.55Zm-370.1 139.12c-.8-11.83-8.86-21.82-20.57-24.81-10.82-3.08-21.42.97-29.19 9.84-7.95-2.41-10.53 5.42-11.17 9.72-1.43 7.48 1.94 9.29 5.13 10.37.24 3.08.97 6.12 2.2 8.95v.01c2.7 6.21 7.62 11.2 13.79 14.04L88.07 374.9c-.63 2.12.58 4.34 2.7 4.97 2.06.63 4.35-.56 4.97-2.7l12.66-42.71c9.92 1.54 19.53-2.25 26.22-10.12 2.96.89 3.02 1.16 5.05.56 4.14-1.69 7.07-11.78 6.6-14.68-.65-4.01-3.58-5.48-5.73-6.18Z"/><path fill="#facc15" d="M268.36 43.58c3.16 7.96 8.89 23.43 11.81 29.73.16.35.3.72.61.98-.06.04-.12.07-.18.11-4.28 2.78-9.9 4.49-15.01 4.31.25-.4-.12-.74-.33-1.26-3.87-9.66-7.79-19.29-11.68-28.94-.02-.06-.05-.12-.07-.18l-.87-2.16c2.27.37 2.61-.78 4.51-1.46 3.33-1.19 7.71-2.11 11.14-1.31.02.06.05.12.07.18Z"/><path fill="#fb923c" d="M253.58 48.5c3.89 9.65 7.81 19.29 11.68 28.94.21.53.59.86.33 1.26-9.91-.34-19.82-8.07-22.57-17.62 3.92 1.38 1.07-.39 3.27-6.24.8-2.12 4.4-8.28 7.21-6.53.02.06.05.12.07.18Zm33.76 3.41c.46 1.23.36 1.74.54 2.64.01.06 0 .13.02.2.19 1.01.41 3.23.45 4.29.04.92.27 1.8.15 2.73-.46 3.51-3.14 8.17-5.62 10.71-.76.77-1.16 1.18-2.1 1.8-.06.04-.12.07-.18.11.06-.04.12-.07.18-.11-.31-.26-.44-.62-.61-.98-2.92-6.3-8.66-21.77-11.81-29.73-.02-.06-.05-.12-.07-.18s-.05-.12-.07-.18-.05-.12-.07-.18c5.14.43 9.48 2.17 13.63 5.16 1.93 1.39 2.6 3.5 5.57 3.71Z"/><path fill="#facc15" d="M242.78 58.03c-.02 1.05-.14 1.58.14 2.71-.33.2-.7.33-1.06.46-3.01 1.08-19.27 7.64-20.72 7.51-1.82-.17-2.54-1.81-2.46-3.47.05-1.08 4.93-18.65 5.66-20.85.57.24 1.44.28 1.95.53.97.47 13.53 12.09 14.39 12.5.56.27 1.47.29 2.08.6Zm68.98-5.08c-.53 2.34-5.01 19.36-5.51 20.29-.95 1.75-2.18 2.43-3.97 1.36-.77-.46-10.99-10.08-12.82-11.89-.33-.32-.62-.65-.97-.94.12-.94-.11-1.81-.15-2.73.68 0 1.58.5 2.13.52 1.01.04 17.35-6.95 18.9-7.06.88-.06 1.55.23 2.38.45Z"/><path fill="#fef08a" d="M311.76 52.95c-.83-.22-1.5-.51-2.38-.45-1.55.11-17.9 7.09-18.9 7.06-.55-.02-1.45-.53-2.13-.52-.04-1.06-.26-3.28-.45-4.29-.01-.06 0-.13-.02-.2.35-.04.77-.12 1.11-.22 4.1-1.18 18.89-7.61 20.87-7.61 3.97-.02 2.38 4.1 1.9 6.23Zm-68.43.41c-.19 1.15-.53 3.64-.55 4.67-.61-.31-1.52-.33-2.08-.6-.86-.41-13.42-12.03-14.39-12.5-.51-.25-1.38-.29-1.95-.53.63-1.9 1.01-5.06 4.06-3.89 1.14.44 10.71 9.86 13.43 11.95.47.36.87.8 1.49.91Zm22.28-16.71c.28.42.35.89.53 1.35.64 1.69 1.34 3.36 2 5.04.02.06.05.12.07.18s.05.12.07.18.05.12.07.18c-.02-.06-.05-.12-.07-.18-3.44-.8-7.82.12-11.14 1.31-1.9.68-2.24 1.83-4.51 1.46-.53-1.32-1.09-2.63-1.59-3.95-.15-.38-.24-.81-.47-1.15.05-.04.1-.07.14-.11 3.66-2.58 10.42-4.43 14.9-4.31Z"/><path fill="#fed7aa" d="M287.34 51.91c-2.96-.21-3.64-2.32-5.57-3.71-4.15-2.99-8.49-4.74-13.63-5.16.02.06.05.12.07.18-.02-.06-.05-.12-.07-.18-.67-1.68-1.36-3.35-2-5.04-.17-.46-.25-.93-.53-1.35 1.67.05 6.39 1.3 8.08 1.96 5.92 2.33 11.4 7.22 13.65 13.3Zm-34.7-5.75.87 2.16c.02.06.05.12.07.18-.02-.06-.05-.12-.07-.18-2.81-1.75-6.42 4.41-7.21 6.53-2.2 5.85.65 7.62-3.27 6.24-.03-.12-.07-.24-.1-.36-.28-1.13-.16-1.66-.14-2.71.02-1.03.35-3.52.55-4.67.89-5.31 2.65-8.96 7.25-12.29.05-.04.1-.07.14-.11-.05.03-.1.07-.14.11.24.34.33.77.47 1.15.51 1.33 1.07 2.63 1.59 3.95Z"/><path fill="none" stroke="#27272a" stroke-linecap="round" stroke-linejoin="round" stroke-width="3.26" d="M282.88 72.48c2.48-2.54 5.17-7.19 5.62-10.71.12-.94-.11-1.81-.15-2.73-.04-1.06-.26-3.28-.45-4.29-.01-.06 0-.13-.02-.2-.17-.9-.08-1.41-.54-2.64-2.26-6.08-7.73-10.97-13.65-13.3-1.69-.67-6.4-1.91-8.08-1.96-4.48-.13-11.24 1.73-14.9 4.31-.05.03-.1.07-.14.11-4.6 3.33-6.36 6.98-7.25 12.29-.19 1.15-.53 3.64-.55 4.67-.02 1.05-.14 1.58.14 2.71.03.12.07.24.1.36 2.75 9.55 12.66 17.27 22.57 17.62 5.11.18 10.72-1.54 15.01-4.31.06-.04.12-.07.18-.11.93-.62 1.34-1.03 2.1-1.8Zm-41.04-20.03c-2.72-2.09-12.29-11.51-13.43-11.95-3.05-1.16-3.42 2-4.06 3.89-.73 2.19-5.61 19.77-5.66 20.85-.08 1.66.63 3.29 2.46 3.47 1.45.14 17.71-6.42 20.72-7.51"/><path fill="none" stroke="#27272a" stroke-linecap="round" stroke-linejoin="round" stroke-width="3.26" d="M251.04 42.21c.51 1.33 1.07 2.63 1.59 3.95l.87 2.16c.02.06.05.12.07.18 3.89 9.65 7.81 19.29 11.68 28.94m14.92-4.13c-2.92-6.3-8.66-21.77-11.81-29.73-.02-.06-.05-.12-.07-.18s-.05-.12-.07-.18-.05-.12-.07-.18c-.67-1.68-1.36-3.35-2-5.04m23.32 24.71c1.83 1.8 12.05 11.42 12.82 11.89 1.79 1.07 3.02.39 3.97-1.36.5-.92 4.99-17.94 5.51-20.29.48-2.14 2.06-6.25-1.9-6.23-1.98 0-16.77 6.44-20.87 7.61"/><path fill="#f97316" d="M503.12 132.42c3.33 3.09 3.04 9.3-1.82 11.99-1.01.56-5.46 1.67-5.59 2.25l5.23 13.66-.15.41c-8.81-2.36-15.06 8.61-8.54 14.99-4.58 2.82-11.98 5.38-17.31 6.28.18-1.72-.15-3.47-.95-5 13.27-4.02 7.99-5.28 12.06-12.4 1.53-2.67 4.85-5.71 5.62-7.05 2.63-4.61-1.87-7.87-1.01-11.24 1.09-4.31 11.14-2.79 8.08-13.05 1.52-.4 2.89 0 4.37-.84Z"/><path fill="#fed7aa" d="M452.07 114.64c-.29 1.2.12 1.24-.71 1.63-3.97-.48-8.49 2.48-7.52 6.91.99 4.55 3.45 3.3 4.75 4.4 1.93 1.63.87 5.36 2.69 9.98 2.52 6.38 8.67 8.8 5.53 10.9-2.61 1.75-13.17 2.72-13.87 8.09-.43 3.29 1.73 4.73 2.47 7.33-5.95-1.05-8.57-7.53-4.83-12.29 2.45-3.12 9.23-3.85 12.63-5.95-5.41-5.12-7.56-9.68-7.88-17.11-11.28-5.01-3.89-19.82 6.75-13.9Z"/><path fill="#facc15" d="M472.43 174.83c6.24 6 .07 17.15-8.36 14.95-2.1-4.38-5.25-10.07.59-13.52 3.84-2.03 5.49-.18 7.64-1.56.05.04.09.09.14.13Zm32.56-11.59c6.04 6.24-.15 16.99-8.62 14.76.03-3.05-6-6.59-.68-12.44 4.27-3.71 7.11-.92 9.3-2.32Z"/><path fill="#fed7aa" d="M479.92 105.91s-.08-.1-.13-.14c-2.06 1.45-3.87.02-6.86 2.12-2.78 1.94-1.54 4.55-4.55 5.37-1.29.35-7.42-.24-12.86 4.48-1.07.3-2.26-1.24-4.15-1.47.83-.39.42-.43.71-1.63.85.17 6.74-5.08 14.12-4.87 2.22-5.86 8.79-8.7 13.61-3.99.04.04.08.1.13.14Z"/><path fill="#fef08a" d="M472.43 174.83s-.09-.09-.14-.13c-2.15 1.38-3.8-.47-7.64 1.56-5.83 3.46-2.68 9.14-.58 13.52-14.71-4.19-2.84-25.25 8.36-14.95Zm28.36-14.1c1.6.43 3.06 1.3 4.2 2.51-2.19 1.41-5.03-1.39-9.3 2.32-5.32 5.86.7 9.37.68 12.44-11.36-2.8-7.05-20.33 4.42-17.27Z"/><path fill="#fed7aa" d="M503.12 132.42c-1.48.85-2.86.45-4.37.84-6.88 1.8-12.59 6.93-13.07.62 5.92-.97 11.89-6.6 17.45-1.46Zm-42.09 41.3c-.9.62-1.67 1.38-2.29 2.28-.04.05-.07.11-.11.16.04-.05.07-.11.11-.16l-.31-.27-4.72-13.85-.11-.07c.21-.13 2.03-3.4 3.98-.72 1.11 1.54.99 4.22 1.05 4.45.75 2.74 1.72 5.42 2.4 8.19Z"/><path fill="#fb923c" d="M451.36 116.27c1.89.23 3.08 1.77 4.15 1.47 5.44-4.71 11.57-4.13 12.86-4.48 3.02-.81 1.78-3.42 4.55-5.37 2.99-2.09 4.81-.67 6.86-2.12 4.2 4.03.99 9.48.97 10.05 6.89 8.53 4.56 13.5 4.91 18.05.49 6.32 6.19 1.18 13.07-.62 3.06 10.26-6.99 8.75-8.08 13.05-.86 3.37 3.64 6.63 1.01 11.24-.77 1.34-4.09 4.38-5.62 7.05-4.07 7.12 1.21 8.38-12.06 12.4.03.06.06.11.09.17-2.27-4.82-8.7-6.53-13.05-3.44-.68-2.77-1.65-5.45-2.4-8.19-.06-.22.06-2.91-1.05-4.45-1.94-2.68-3.77.58-3.98.72l.11.07-.11-.07c-.36.23-6.44 2.39-8.19 2.08-.74-2.6-2.9-4.04-2.47-7.33.7-5.37 11.27-6.34 13.87-8.09 3.14-2.11-3.01-4.52-5.53-10.9-1.82-4.62-.76-8.36-2.69-9.98-1.31-1.1-3.76.15-4.75-4.4-.97-4.42 3.55-7.38 7.52-6.91Z"/><path fill="#27272a" d="M455.95 124.07c2.09-.8 3.23 2.14 1.68 3.1-2.12 1.32-3.91-2.25-1.68-3.1Zm13.46-4.88c2.76-1.1 3.37 3.65.47 3.36-1.48-.15-2.02-2.74-.47-3.36Z"/><path fill="#fefefe" stroke="#27272a" stroke-linecap="round" stroke-linejoin="round" stroke-width="2.65" d="M464.16 128.53c8.9-4.57 17.06 6.45 8.69 12.71-9.7 7.26-19.84-6.99-8.69-12.71Z"/><path fill="#27272a" d="M463.98 131.37c1.35-.87 5.65-2.58 6.18-.11.27 1.26-1.8 3-.77 4.55 1.14 1.72 2.44-1.51 3.48-.15.86 1.13-.63 3.66-4.23 2.93-3.05 4.49-7.32-1.17-2.45-.6 2.51-3.15-3.38-2.53-3.01-5.5.04-.33.53-.95.8-1.13Z"/><path fill="none" stroke="#27272a" stroke-linecap="round" stroke-linejoin="round" stroke-width="2.65" d="M506.87 166.3c-.41-1.14-1.06-2.18-1.89-3.06-1.14-1.21-2.59-2.08-4.2-2.51-8.81-2.36-15.06 8.61-8.54 14.99 1.14 1.12 2.56 1.91 4.12 2.29 6.9 1.69 12.93-5.02 10.51-11.7Zm-32.41 11.74c-.11-.3-.24-.59-.38-.88-.03-.06-.06-.11-.09-.17-.41-.8-.94-1.52-1.56-2.16-.04-.05-.09-.09-.14-.13-3.04-2.97-7.76-3.37-11.26-.98-.9.62-1.67 1.38-2.29 2.28-.04.05-.07.11-.11.16-3.44 5.19-.62 12.23 5.44 13.62 5.22 1.2 10.32-2.45 10.87-7.78.14-1.34-.02-2.69-.48-3.95Zm.92 3.99c5.05-1.1 12.06-3.55 16.58-6.01"/><path fill="none" stroke="#27272a" stroke-linecap="round" stroke-linejoin="round" stroke-width="2.65" d="m458.43 175.73-4.72-13.85-.11-.07c-.36.23-6.44 2.39-8.19 2.08-5.95-1.05-8.57-7.53-4.83-12.29 2.45-3.12 9.23-3.85 12.63-5.95-5.41-5.12-7.56-9.68-7.88-17.11-11.28-5.01-3.89-19.82 6.75-13.9.85.17 6.74-5.08 14.12-4.87 2.22-5.86 8.79-8.7 13.61-3.99.04.04.08.1.13.14 4.09 4.21.81 9.29.84 9.91 6.89 8.53 4.56 13.5 4.91 18.05 5.92-.97 11.89-6.6 17.45-1.46 3.33 3.09 3.04 9.3-1.82 11.99-1.01.56-5.46 1.67-5.59 2.25l5.23 13.66"/><path fill="#facc15" d="M133.32 319.72c-.08-.02-.16-.05-.24-.08l-.63 1.05c-15.25 19.47-43.3 8.46-43.8-13.04-.01-.45-.01-.92.05-1.36 7.8 2.8 34.62 10.59 44.38 13.35.08.02.16.05.24.08Zm3.33-12.62c-7.74-2.76-26.87-8.26-36.06-10.91.7-4.03 8.78-8.25 12.63-9.88 3.56-1.51 5.64-.59 5.74-3.18 10.5 2.74 17.36 11.74 17.68 22.59.01.46.03.92 0 1.38Z"/><path fill="#fef08a" d="M118.96 283.13c-.1 2.59-2.18 1.66-5.74 3.18-3.85 1.64-11.93 5.85-12.63 9.88-2.78-.8-5.54-1.82-8.34-2.52.04-.57.49-.78.83-1.17 7.08-8.03 15.06-12.2 25.88-9.37Z"/><path fill="#fb923c" stroke="#27272a" stroke-linecap="round" stroke-linejoin="round" stroke-width="2.65" d="M100.59 296.19c9.19 2.65 28.31 8.15 36.06 10.91 2.35.84 5.19.8 5.68 3.79.28 1.76-2.43 9.63-4.17 10.34-.23.1-4.12-1.3-4.83-1.5-.08-.02-.16-.05-.24-.08-9.77-2.76-36.58-10.55-44.38-13.35-4.45-1.6-6.23-1.14-5.17-6.73 1.74-9.13 4.66-6.92 8.72-5.9 2.8.7 5.56 1.72 8.34 2.52Z"/><path fill="none" stroke="#27272a" stroke-linecap="round" stroke-miterlimit="10" stroke-width="2.65" d="M105.19 331.2 91.9 376.05"/><path fill="none" stroke="#27272a" stroke-linecap="round" stroke-linejoin="round" stroke-width="2.65" d="M88.65 307.65c.5 21.5 28.55 32.5 43.8 13.04m4.19-14.97c-.32-10.85-7.18-19.84-17.68-22.59-10.83-2.83-18.8 1.34-25.88 9.37"/></svg>
