<svg xmlns="http://www.w3.org/2000/svg" viewBox="0 0 600 400"><defs><pattern id="a" width="32" height="32" x="0" y="0" patternTransform="rotate(-3 -92636.14582751 107314.85167868) scale(.6)" patternUnits="userSpaceOnUse"><path d="M0 0h32v32H0z" style="fill:none"/><circle cx="8" cy="8" r="4.8" style="fill:#06b6d4;opacity:.5"/><circle cx="24" cy="24" r="4.8" style="fill:#06b6d4;opacity:.5"/></pattern><pattern id="b" width="32" height="32" x="0" y="0" patternTransform="rotate(-3 -92636.14582751 107314.85167868) scale(.6)" patternUnits="userSpaceOnUse"><path d="M0 0h32v32H0z" style="fill:none"/><circle cx="8" cy="8" r="4.8" style="fill:#ec4899;opacity:.5"/><circle cx="24" cy="24" r="4.8" style="fill:#ec4899;opacity:.5"/></pattern></defs><path d="m545.91 331.83-1.04-19.91c-.15-2.79-1.52-5.37-3.74-7.09-.33-.34-.68-.66-1.05-.95-.32-.33-.66-.64-1.02-.92 3.15-1.94 5.12-5.44 4.92-9.41l-1.9-36.24c-.16-3.02-1.56-5.73-3.88-7.58l-11.61-10.46 3.89-.2c5.95-.31 10.38-5.14 10.07-10.99l-1-19.09c-.17-3.18-1.72-6.13-4.2-8.05 0 0-17.86-16.08-17.85-16.07 0 0-.01 0-.02-.01 6.5-8.02 4.68-20.74-3.74-26.68-.27-.37-.56-.73-.86-1.09l-.52-1.37c8.2-5.94 9.39-18.76 2.23-25.95-.74-.81-1.58-1.51-2.49-2.17-3.36-4.77-9.3-7.7-15.14-7.28-.38-.78-.83-1.58-1.28-2.34.95-5.61-.56-10.79-4.37-14.82-.14-.16-.51-.54-.52-.54-.55-.54-1.33-1.21-2.03-1.7-.44-.6-1.97-2.29-1.97-2.3-1.09-1.06-2.73-2.24-3.56-2.74-1.85-1.11-3.84-1.85-5.88-2.2 0 0-2.29-.25-2.43-.25-.18-.01-2.17.07-2.28.08-.35.04-.68.08-1 .13l-22.43-19.72c-2.91-2.47-6.5-2.84-8.39-2.84-1.31-.02-74.38 3.92-75.55 3.94l-14.99-13.5c-1.84-1.66-5.29-3.59-8.92-3.59-.18 0-.35 0-.52.01l-15.2.8c.27-1.05.63-2.4.79-4.21.32-2.93-.44-6.14-2.09-8.58l.02.02c-1-1.4-2.18-2.57-3.63-3.43-2.29-3.76-6.26-5.84-10.9-5.83-2.18-.18-6.91 1.5-15.86 5.09-.84-.89-1.75-1.72-2.69-2.52-6.34-7.48-15.2-11.73-25.38-12.63-2.52-.07-5.18.23-7.86.79l-7.22-6.5c-2.17-2.22-5.21-3.46-8.26-3.31L195.4 20.1c-2.62.14-5.2 1.36-7.08 3.34-2.05 2.16-3.09 4.98-2.94 7.92.3 2.37.59 20.62 1.71 22.43-1.16.11-11.22.44-12.07.78-.13-.02-.26-.03-.4-.04-1.73-1.69-4.06-2.67-6.48-2.67-.16 0-.31 0-.48.01l-6.83.36c-2.72.14-5.09 1.41-6.68 3.34 0 0-10.95.57-10.98.58l-22.44-19.89c-1.84-1.43-4.13-2.17-6.42-2.05-1.11.13-16.68.68-17.23 1.11-1.52-.26-16.08.71-17.79.8-.34-.04-5.17.25-5.65.27-1.13.06-2.07.32-2.73.56-1.9-.63-8.65.14-10.69.14-5.11.27-9.04 4.63-8.78 9.71.18 1.53.62 17.06 1.25 18.11-.48.93.69 16.63.67 18.03.07 1.4.46 2.73 1.1 3.92-.4 1.22-.58 2.51-.51 3.79l6.5 123.96c.17 3.29 2.29 6.25 4.33 8.32l4.38 3.97-4.04 4.3c-2.71 2.4-4.38 6.36-4.19 10.02l2.55 48.6c.15 2.79 1.34 5.34 3.34 7.2-1.73 2.01-2.71 4.64-2.57 7.46l2.34 44.58c.17 3.27 1.77 6.3 4.31 8.28l12.74 11.47-1.29 4.37c-1.39 4.39.74 9.5 4.8 11.62 4.19 7.79 15.87 6.52 18.37-1.94l1.4-4.72 102.13-5.35c5.97-.46 8.92-3.74 12.07-7.21l4.61 4.12c2.57 2.24 4.69 3.11 7.6 2.98l42.68-2.24c2.21-.12 4.28-.85 5.95-2.11 1.68 1.06 3.71 1.6 5.74 1.49l48.55-2.54c.84-.04 1.67-.2 2.47-.45.81.17 1.67.23 2.51.19l42.69-2.24c1.01-.05 3.25-.34 5.4-1.73 1.69 1.06 3.73 1.6 5.76 1.49 1.34-.32 44.35-1.66 43.99-2.97.38.02.75.02 1.12 0l36.44-1.91c1.11-.06 3.71-.39 6.08-2.21 1.34.56 2.83.83 4.31.75l26.08-1.37c5.24-.17 9.64-4.89 9.26-10.14l-.21-4.02 14.51-.76c5.38-.28 9.54-4.83 9.26-10.14Z" style="fill:#fff"/><path d="M530.16 233.07c2.64-.14 4.52-2.15 4.39-4.69l-1-19.09c-.09-1.64-.96-3.04-2.21-3.85-.31-.36-19.57-17.72-19.97-17.98-.91-1.08-2.24-1.74-3.72-1.66l-12.2.64c-.17-.14-.33-.28-.52-.41-.31-.36-12.96-11.74-13.16-11.91l-3.32-63.44c-.07-1.42-.7-3.54-2.2-4.82 0 0-20.88-18.81-21.02-18.93l-9.93-8.46c-1.71-1.45-4.2-1.44-4.92-1.4L365.36 81c-.69.04-1.33.19-1.91.45l-17.2-15.49c-1.18-1.06-3.38-2.14-5.12-2.05l-71.46 3.75c.14-.5.2-1.01.18-1.52l-1-19.13c-.08-1.58-.96-2.85-2.11-3.63-.31-.37-19.58-17.72-19.97-17.98-.99-1.19-2.52-1.87-3.91-1.79l-47.16 2.47c-2.17.11-4.49 2.18-4.34 4.96l1 19.13c.08 1.56 1.04 3.24 2.42 4.18.31.36 5.92 5.41 6.31 5.68.11.13.22.25.34.36-2.4.19-5.85-.26-7.38 2.21-2.04-2.62-3.49-2.98-4.65-2.92-1.14.21-13.47.29-14.11 1.18-.79-.48-2.02-.34-2.92-.29-1.42-1.12-2.55-2.81-4.4-2.71l-6.84.36c-1.77.09-3.14 1.59-3.1 3.35-.12.06-.23.13-.34.2-.54-.7-13.15.45-14.13.37-.56.03-1.07.21-1.51.48-1.43-1.02-24.17-21.35-25-21.61-.71-.56-1.58-.85-2.44-.8l-15.3.8c-.68.04-1.31.28-1.81.66-.58-.31-1.23-.47-1.88-.43l-15.3.8c-.25.01-.49.06-.72.13-.34-.15-5.17.21-5.65.21-1.19.17-2.01.67-2.7 1.2-.78-.44-1.44-.83-2.84-.91l-7.88.41c-1.8.09-3.19 1.62-3.1 3.41l.83 15.79c.05.91.46 1.7 1.09 2.25-.55.61-.87 1.43-.83 2.32l.83 15.79c.06 1.15.7 2.11 1.64 2.63.26.37.59.68.98.91-1.34 1.01-2.11 2.66-2.04 4.16l6.5 123.96c.09 1.75 1.01 3.25 2.33 4.12.31.36 8.76 7.96 8.96 8.13l-8.47 9c-1.58 1.27-2.43 3.65-2.34 5.36l2.55 48.6c.08 1.55.87 2.82 2.04 3.61.29.37 6.46 5.83 6.53 5.92l-3.1.16c-2.96.16-4.82 2.7-4.7 4.98l2.34 44.58c.09 1.74 1 3.22 2.32 4.09.31.36 19.57 17.72 19.97 17.98.97 1.13 2.39 1.83 3.95 1.75l109.92-5.76c2.17-.11 4.32-1.41 5.41-2.56l6.63-7.05c.18.17 8.59 7.77 9 8.01.72.96 1.91 1.55 3.25 1.48l42.68-2.24c2.99-.13 4.19-2.68 6.01-4.25.13.1 3.31 3.78 5.68 3.64l48.56-2.54c.97-.05 1.81-.44 2.44-1.04.69.53 1.57.83 2.54.78l42.68-2.24c.33-.02 2.01-.16 3.17-1.35l2.4-2.45c.08.06 2.85 3.97 5.61 3.56l40.46-2.12c1.08-.06 2.01-.55 2.65-1.29.59.31 1.27.49 2 .45l36.45-1.91c.32-.02 2.01-.16 3.18-1.36l2.64-2.73c.1.08 1.55 2.78 4.56 2.64l26.08-1.37c2.12-.11 3.69-1.79 3.58-3.83l-.52-10.01 20.5-1.07c2.12-.11 3.69-1.79 3.58-3.83l-1.04-19.91c-.06-1.23-.79-2.04-1.79-2.92l-11.47-10.34 7.98-.42c2.64-.14 4.52-2.15 4.39-4.69l-1.9-36.24c-.08-1.48-.83-2.69-1.96-3.43-.29-.37-19.57-17.72-19.97-17.98-.88-1.13-2.31-1.8-3.95-1.72l-8.61.45-.02-.37 28.58-1.5Zm-78.35 54.85-9.18.48-.48-9.19 9.66 8.71ZM335.9 118.28l-6.06.32-.07-1.36 4.68-.25 1.45 1.29Z" style="fill:#27272a"/><path d="M79 45.14c.17 0 .28.13.28.22l.83 15.79c0 .13-.09.22-.26.23l-4.81.25c-.15 0-.26-.08-.26-.21l-.35-6.69c0-.13-.11-.18-.21-.08l-2.12 1.49c-.1.06-.31.07-.42.02l-2.27-1.3c-.11-.05-.21.01-.2.1l.35 6.72c0 .13-.09.22-.26.23l-7.78.41c-.17 0-.28-.08-.28-.21l-.83-15.79c0-.09.09-.24.26-.25l7.88-.41c.17 0 .38.07.49.12l2.16 1.21c.11.09.32.08.42-.02l2.02-1.43c.14-.06.35-.16.45-.17l4.91-.26Zm19.56 7.38c.15 0 .26.08.26.21l.39 7.42c0 .13-.09.22-.24.23l-15.32.8c-.1 0-.31-.02-.43-.11l-2.12-1.69c-.11-.09-.18-.21-.19-.36l-.72-13.72c0-.09.09-.24.26-.25l15.3-.8c.17 0 .32.08.43.16l2.14 1.63c.11.09.16.27.17.41l.17 3.21c0 .09-.09.22-.24.23l-5.5.29c-.1 0-.26-.11-.26-.21l-.06-1.19c0-.15-.12-.23-.28-.22l-2.66.14c-.17 0-.27.11-.26.25l.29 5.53c0 .15.12.23.28.22l2.66-.14c.17 0 .27-.11.26-.25l-.07-1.28c0-.13.14-.23.24-.23l5.5-.29Zm19-1.03c.15 0 .26.08.26.21l.39 7.42c0 .13-.09.23-.24.23l-15.32.8c-.1 0-.31-.02-.43-.11l-2.12-1.69c-.11-.09-.18-.21-.19-.36l-.72-13.72c0-.09.09-.24.26-.25l15.3-.8c.17 0 .32.08.43.16l2.14 1.63c.11.09.16.27.17.41l.17 3.2c0 .09-.09.23-.24.23l-5.5.29c-.1 0-.26-.12-.26-.21l-.06-1.19c0-.15-.12-.23-.28-.22l-2.66.14c-.17 0-.27.1-.26.25l.29 5.53c0 .15.12.23.28.22l2.66-.14c.17 0 .27-.11.26-.25l-.07-1.28c0-.13.13-.23.24-.23l5.5-.29Zm-40.5 14.16c.17 0 .38.07.43.16l2.14 1.63c.11.09.16.27.17.41l.6 11.43c0 .15-.09.24-.24.25l-8.68.45c-.17 0-.26.14-.26.23l.09 1.8c0 .13-.14.23-.24.23l-8.47.44c-.17 0-.28-.08-.28-.21l-.83-15.79c0-.09.09-.24.26-.25l15.3-.8Zm-6.23 7.12c0 .15.12.23.28.22l2.66-.14c.17 0 .27-.1.26-.25l-.11-2.14c0-.15-.12-.23-.28-.22l-2.66.14c-.17 0-.27.11-.26.25l.11 2.14Zm24.97.62c0 .15-.13.25-.24.25l-7 .37c-.17 0-.27.14-.26.23l.36 6.87c0 .13-.13.23-.24.23l-6.96.36c-.1 0-.26-.08-.26-.21l-.67-12.86c0-.09.13-.25.24-.25l6.96-.36c.1 0 .26.13.26.22l.07 1.37c0 .13.18.21.28.11l1.7-1.65c.1-.1.3-.2.41-.21l4.81-.25c.1 0 .26.13.26.22l.29 5.53Zm8.45.94c-.1 0-.26.16-.26.25l.04.73c0 .09.18.21.28.21l7.05-.37c.17 0 .28.08.28.22l.24 4.52c0 .13-.09.28-.26.29l-12.44.65c-.15 0-.36-.07-.47-.16l-1.64-1.29c-.11-.09-.22-.26-.23-.41l-.58-11.12c0-.13.13-.28.24-.29l12.5-.66c.15 0 .36.07.43.16l1.68 1.29c.11.09.18.27.19.41l.26 4.95c0 .13-.09.22-.26.23l-7.05.37Zm-.19-3.76c-.1 0-.27.11-.26.25l.03.64c0 .13.18.21.28.21l2.13-.11c.17 0 .27-.11.26-.23l-.03-.64c0-.15-.12-.23-.28-.22l-2.13.11Zm14.94-.78c-.15 0-.25.1-.24.25l.03.64c0 .13.12.21.26.21l7.84-.41c.17 0 .28.08.28.22l.35 6.67c0 .15-.09.34-.15.43l-1.54 1.46c-.1.1-.31.14-.41.15l-12.5.66c-.1 0-.26-.08-.26-.21l-.24-4.52c0-.15.13-.25.24-.25l7.17-.38c.15 0 .24-.14.24-.23l-.04-.73c0-.15-.12-.23-.26-.22l-7.17.38c-.1 0-.26-.08-.26-.21l-.26-5c0-.13.09-.32.19-.38l1.5-1.46c.1-.1.3-.2.45-.21l12.44-.65c.17 0 .28.13.28.22l.15 2.93c0 .09-.09.23-.26.23l-7.84.41Zm16.73 2.89c-.1 0-.26.16-.26.25l.04.73c0 .09.18.21.28.21l7.05-.37c.17 0 .28.08.28.22l.24 4.52c0 .13-.09.28-.26.29l-12.44.65c-.15 0-.36-.07-.47-.16l-1.64-1.29c-.11-.09-.22-.26-.23-.41l-.58-11.12c0-.13.13-.28.24-.29l12.5-.66c.15 0 .36.07.43.16l1.68 1.29c.11.09.18.27.19.41l.26 4.95c0 .13-.09.22-.26.23l-7.05.37Zm-.2-3.76c-.1 0-.27.11-.26.25l.03.64c0 .13.18.21.28.21l2.13-.11c.17 0 .27-.11.26-.23l-.03-.64c0-.15-.12-.23-.28-.22l-2.13.11Zm22.79-3.03c.11.09.18.27.19.41l.58 11.12c0 .13-.09.22-.26.23l-4.39.23c-.15 0-.26-.08-.26-.21l-.36-6.87c0-.09-.18-.21-.28-.21l-2.13.11c-.1 0-.26.14-.26.23l.36 6.87c0 .13-.09.22-.24.23l-6.86.36c-.1 0-.26-.08-.26-.21l-.67-12.82c0-.13.13-.23.24-.23l12.5-.66c.15 0 .31.02.42.11l1.68 1.29Zm15.88 5.01c.17 0 .28.08.28.21l.29 5.5c0 .13-.09.22-.26.23l-10.45.55c-.15 0-.36-.02-.47-.1L161.95 76c-.11-.09-.18-.27-.19-.41l-.41-7.77c0-.15-.16-.23-.26-.22l-1.53.08c-.1 0-.26-.08-.26-.21l-.15-2.89c0-.13.13-.28.24-.29l1.53-.08c.1 0 .25-.1.24-.23l-.13-2.44c0-.13.09-.28.26-.29l6.84-.36c.1 0 .28.13.29.26l.13 2.44c0 .13.12.21.26.21l5.02-.26c.17 0 .28.13.29.26l.15 2.89c0 .13-.09.23-.26.23l-5.02.26c-.15 0-.25.1-.24.25l.18 3.52c0 .15.12.23.26.22l5.02-.26Zm7.69-4.4c-.15 0-.25.1-.24.25l.03.64c0 .13.12.21.26.21l7.84-.41c.17 0 .28.08.28.22l.35 6.67c0 .15-.09.34-.15.43l-1.54 1.46c-.1.1-.31.14-.41.15l-12.5.66c-.1 0-.26-.08-.26-.21l-.24-4.52c0-.15.13-.25.24-.25l7.17-.38c.15 0 .24-.14.24-.23l-.04-.73c0-.15-.12-.23-.26-.22l-7.17.38c-.1 0-.26-.08-.26-.21l-.26-5c0-.13.09-.32.19-.38l1.5-1.46c.1-.1.3-.2.45-.21l12.44-.65c.17 0 .28.13.28.22l.15 2.93c0 .09-.09.23-.26.23l-7.84.41Z" style="fill:none;stroke:#27272a;stroke-linejoin:round;stroke-width:6px"/><path d="M79 45.14c.17 0 .28.13.28.22l.83 15.79c0 .13-.09.22-.26.23l-4.81.25c-.15 0-.26-.08-.26-.21l-.35-6.69c0-.13-.11-.18-.21-.08l-2.12 1.49c-.1.06-.31.07-.42.02l-2.27-1.3c-.11-.05-.21.01-.2.1l.35 6.72c0 .13-.09.22-.26.23l-7.78.41c-.17 0-.28-.08-.28-.21l-.83-15.79c0-.09.09-.24.26-.25l7.88-.41c.17 0 .38.07.49.12l2.16 1.21c.11.09.32.08.42-.02l2.02-1.43c.14-.06.35-.16.45-.17l4.91-.26Zm19.56 7.38c.15 0 .26.08.26.21l.39 7.42c0 .13-.09.22-.24.23l-15.32.8c-.1 0-.31-.02-.43-.11l-2.12-1.69c-.11-.09-.18-.21-.19-.36l-.72-13.72c0-.09.09-.24.26-.25l15.3-.8c.17 0 .32.08.43.16l2.14 1.63c.11.09.16.27.17.41l.17 3.21c0 .09-.09.22-.24.23l-5.5.29c-.1 0-.26-.11-.26-.21l-.06-1.19c0-.15-.12-.23-.28-.22l-2.66.14c-.17 0-.27.11-.26.25l.29 5.53c0 .15.12.23.28.22l2.66-.14c.17 0 .27-.11.26-.25l-.07-1.28c0-.13.14-.23.24-.23l5.5-.29Zm19-1.03c.15 0 .26.08.26.21l.39 7.42c0 .13-.09.23-.24.23l-15.32.8c-.1 0-.31-.02-.43-.11l-2.12-1.69c-.11-.09-.18-.21-.19-.36l-.72-13.72c0-.09.09-.24.26-.25l15.3-.8c.17 0 .32.08.43.16l2.14 1.63c.11.09.16.27.17.41l.17 3.2c0 .09-.09.23-.24.23l-5.5.29c-.1 0-.26-.12-.26-.21l-.06-1.19c0-.15-.12-.23-.28-.22l-2.66.14c-.17 0-.27.1-.26.25l.29 5.53c0 .15.12.23.28.22l2.66-.14c.17 0 .27-.11.26-.25l-.07-1.28c0-.13.13-.23.24-.23l5.5-.29Zm-40.5 14.16c.17 0 .38.07.43.16l2.14 1.63c.11.09.16.27.17.41l.6 11.43c0 .15-.09.24-.24.25l-8.68.45c-.17 0-.26.14-.26.23l.09 1.8c0 .13-.14.23-.24.23l-8.47.44c-.17 0-.28-.08-.28-.21l-.83-15.79c0-.09.09-.24.26-.25l15.3-.8Zm-6.23 7.12c0 .15.12.23.28.22l2.66-.14c.17 0 .27-.1.26-.25l-.11-2.14c0-.15-.12-.23-.28-.22l-2.66.14c-.17 0-.27.11-.26.25l.11 2.14Zm24.97.62c0 .15-.13.25-.24.25l-7 .37c-.17 0-.27.14-.26.23l.36 6.87c0 .13-.13.23-.24.23l-6.96.36c-.1 0-.26-.08-.26-.21l-.67-12.86c0-.09.13-.25.24-.25l6.96-.36c.1 0 .26.13.26.22l.07 1.37c0 .13.18.21.28.11l1.7-1.65c.1-.1.3-.2.41-.21l4.81-.25c.1 0 .26.13.26.22l.29 5.53Zm8.45.94c-.1 0-.26.16-.26.25l.04.73c0 .09.18.21.28.21l7.05-.37c.17 0 .28.08.28.22l.24 4.52c0 .13-.09.28-.26.29l-12.44.65c-.15 0-.36-.07-.47-.16l-1.64-1.29c-.11-.09-.22-.26-.23-.41l-.58-11.12c0-.13.13-.28.24-.29l12.5-.66c.15 0 .36.07.43.16l1.68 1.29c.11.09.18.27.19.41l.26 4.95c0 .13-.09.22-.26.23l-7.05.37Zm-.19-3.76c-.1 0-.27.11-.26.25l.03.64c0 .13.18.21.28.21l2.13-.11c.17 0 .27-.11.26-.23l-.03-.64c0-.15-.12-.23-.28-.22l-2.13.11Zm14.94-.78c-.15 0-.25.1-.24.25l.03.64c0 .13.12.21.26.21l7.84-.41c.17 0 .28.08.28.22l.35 6.67c0 .15-.09.34-.15.43l-1.54 1.46c-.1.1-.31.14-.41.15l-12.5.66c-.1 0-.26-.08-.26-.21l-.24-4.52c0-.15.13-.25.24-.25l7.17-.38c.15 0 .24-.14.24-.23l-.04-.73c0-.15-.12-.23-.26-.22l-7.17.38c-.1 0-.26-.08-.26-.21l-.26-5c0-.13.09-.32.19-.38l1.5-1.46c.1-.1.3-.2.45-.21l12.44-.65c.17 0 .28.13.28.22l.15 2.93c0 .09-.09.23-.26.23l-7.84.41Zm16.73 2.89c-.1 0-.26.16-.26.25l.04.73c0 .09.18.21.28.21l7.05-.37c.17 0 .28.08.28.22l.24 4.52c0 .13-.09.28-.26.29l-12.44.65c-.15 0-.36-.07-.47-.16l-1.64-1.29c-.11-.09-.22-.26-.23-.41l-.58-11.12c0-.13.13-.28.24-.29l12.5-.66c.15 0 .36.07.43.16l1.68 1.29c.11.09.18.27.19.41l.26 4.95c0 .13-.09.22-.26.23l-7.05.37Zm-.2-3.76c-.1 0-.27.11-.26.25l.03.64c0 .13.18.21.28.21l2.13-.11c.17 0 .27-.11.26-.23l-.03-.64c0-.15-.12-.23-.28-.22l-2.13.11Zm22.79-3.03c.11.09.18.27.19.41l.58 11.12c0 .13-.09.22-.26.23l-4.39.23c-.15 0-.26-.08-.26-.21l-.36-6.87c0-.09-.18-.21-.28-.21l-2.13.11c-.1 0-.26.14-.26.23l.36 6.87c0 .13-.09.22-.24.23l-6.86.36c-.1 0-.26-.08-.26-.21l-.67-12.82c0-.13.13-.23.24-.23l12.5-.66c.15 0 .31.02.42.11l1.68 1.29Zm15.88 5.01c.17 0 .28.08.28.21l.29 5.5c0 .13-.09.22-.26.23l-10.45.55c-.15 0-.36-.02-.47-.1L161.95 76c-.11-.09-.18-.27-.19-.41l-.41-7.77c0-.15-.16-.23-.26-.22l-1.53.08c-.1 0-.26-.08-.26-.21l-.15-2.89c0-.13.13-.28.24-.29l1.53-.08c.1 0 .25-.1.24-.23l-.13-2.44c0-.13.09-.28.26-.29l6.84-.36c.1 0 .28.13.29.26l.13 2.44c0 .13.12.21.26.21l5.02-.26c.17 0 .28.13.29.26l.15 2.89c0 .13-.09.23-.26.23l-5.02.26c-.15 0-.25.1-.24.25l.18 3.52c0 .15.12.23.26.22l5.02-.26Zm7.69-4.4c-.15 0-.25.1-.24.25l.03.64c0 .13.12.21.26.21l7.84-.41c.17 0 .28.08.28.22l.35 6.67c0 .15-.09.34-.15.43l-1.54 1.46c-.1.1-.31.14-.41.15l-12.5.66c-.1 0-.26-.08-.26-.21l-.24-4.52c0-.15.13-.25.24-.25l7.17-.38c.15 0 .24-.14.24-.23l-.04-.73c0-.15-.12-.23-.26-.22l-7.17.38c-.1 0-.26-.08-.26-.21l-.26-5c0-.13.09-.32.19-.38l1.5-1.46c.1-.1.3-.2.45-.21l12.44-.65c.17 0 .28.13.28.22l.15 2.93c0 .09-.09.23-.26.23l-7.84.41Z" style="fill:#fff"/><path d="M140.97 181.14c-.35-.99-1.55-1.65-2.28-1.61l-6.14.32c-1.17.06-1.86.82-1.81 1.83l1.53 29.19c.05 1.01-.62 2.19-1.64 2.25l-59.21 3.1c-1.17.06-1.96-1.05-2.01-2.06L62.91 90.2c-.04-.72.63-1.91 1.8-1.97l107.01-5.61c1.17-.06 2.67.58 3.44 1.26l14.61 12.93c.77.68 1.57 2.08 1.63 3.23l3.91 74.63c.06 1.15-.63 1.91-1.8 1.97l-5.12.27c-1.02.05-1.42.8-1.37 1.8l10.7 27.99c.81 1.4-.29 2.9-1.75 2.98l-41.23 2.16c-1.17.06-2.25-1.03-2.73-1.73l-11.05-28.98Zm-12.82-48.93c.05 1.01.82 1.69 1.99 1.63l18.57-.97c1.17-.06 1.86-.82 1.81-1.82l-.79-15.1c-.06-1.15-.84-2.12-2.01-2.06l-18.57.97c-1.17.06-1.85 1.11-1.79 2.26l.79 15.1Z" style="fill:none;stroke:#27272a;stroke-linejoin:round;stroke-width:6px"/><path d="M140.97 181.14c-.35-.99-1.55-1.65-2.28-1.61l-6.14.32c-1.17.06-1.86.82-1.81 1.83l1.53 29.19c.05 1.01-.62 2.19-1.64 2.25l-59.21 3.1c-1.17.06-1.96-1.05-2.01-2.06L62.91 90.2c-.04-.72.63-1.91 1.8-1.97l107.01-5.61c1.17-.06 2.67.58 3.44 1.26l14.61 12.93c.77.68 1.57 2.08 1.63 3.23l3.91 74.63c.06 1.15-.63 1.91-1.8 1.97l-5.12.27c-1.02.05-1.42.8-1.37 1.8l10.7 27.99c.81 1.4-.29 2.9-1.75 2.98l-41.23 2.16c-1.17.06-2.25-1.03-2.73-1.73l-11.05-28.98Zm-12.82-48.93c.05 1.01.82 1.69 1.99 1.63l18.57-.97c1.17-.06 1.86-.82 1.81-1.82l-.79-15.1c-.06-1.15-.84-2.12-2.01-2.06l-18.57.97c-1.17.06-1.85 1.11-1.79 2.26l.79 15.1Z" style="fill:none;stroke:#27272a;stroke-linejoin:round;stroke-width:6px"/><path d="M140.97 181.14c-.35-.99-1.55-1.65-2.28-1.61l-6.14.32c-1.17.06-1.86.82-1.81 1.83l1.53 29.19c.05 1.01-.62 2.19-1.64 2.25l-59.21 3.1c-1.17.06-1.96-1.05-2.01-2.06L62.91 90.2c-.04-.72.63-1.91 1.8-1.97l107.01-5.61c1.17-.06 2.67.58 3.44 1.26l14.61 12.93c.77.68 1.57 2.08 1.63 3.23l3.91 74.63c.06 1.15-.63 1.91-1.8 1.97l-5.12.27c-1.02.05-1.42.8-1.37 1.8l10.7 27.99c.81 1.4-.29 2.9-1.75 2.98l-41.23 2.16c-1.17.06-2.25-1.03-2.73-1.73l-11.05-28.98Zm-12.82-48.93c.05 1.01.82 1.69 1.99 1.63l18.57-.97c1.17-.06 1.86-.82 1.81-1.82l-.79-15.1c-.06-1.15-.84-2.12-2.01-2.06l-18.57.97c-1.17.06-1.85 1.11-1.79 2.26l.79 15.1ZM243.01 26.63c.66-.03 1.76.63 1.82 1.63l1 19.13c.05 1.01-.95 2.21-1.61 2.25l-47.16 2.47c-.67.03-1.65-1.07-1.71-2.07l-1-19.13c-.05-1.01.84-1.77 1.5-1.81l47.16-2.47Zm-46.85 38.79c-.05-1.01.84-1.77 1.5-1.81l47.16-2.47c.66-.03 1.76.63 1.82 1.64l4.67 89.16c.05 1.01-.95 2.21-1.61 2.25l-47.16 2.47c-.67.03-1.65-1.07-1.71-2.07l-4.67-89.16Z" style="fill:none;stroke:#27272a;stroke-linejoin:round;stroke-width:6px"/><path d="M243.01 26.63c.66-.03 1.76.63 1.82 1.63l1 19.13c.05 1.01-.95 2.21-1.61 2.25l-47.16 2.47c-.67.03-1.65-1.07-1.71-2.07l-1-19.13c-.05-1.01.84-1.77 1.5-1.81l47.16-2.47Zm-46.85 38.79c-.05-1.01.84-1.77 1.5-1.81l47.16-2.47c.66-.03 1.76.63 1.82 1.64l4.67 89.16c.05 1.01-.95 2.21-1.61 2.25l-47.16 2.47c-.67.03-1.65-1.07-1.71-2.07l-4.67-89.16Z" style="fill:none;stroke:#27272a;stroke-linejoin:round;stroke-width:6px"/><path d="M243.01 26.63c.66-.03 1.76.63 1.82 1.63l1 19.13c.05 1.01-.95 2.21-1.61 2.25l-47.16 2.47c-.67.03-1.65-1.07-1.71-2.07l-1-19.13c-.05-1.01.84-1.77 1.5-1.81l47.16-2.47Zm-46.85 38.79c-.05-1.01.84-1.77 1.5-1.81l47.16-2.47c.66-.03 1.76.63 1.82 1.64l4.67 89.16c.05 1.01-.95 2.21-1.61 2.25l-47.16 2.47c-.67.03-1.65-1.07-1.71-2.07l-4.67-89.16Zm161.19 54.74c1.15-.06 1.91.62 1.97 1.77l2.46 47.02c.05 1.01-.61 2.19-1.76 2.25l-85.56 4.48c-1.01.05-2.48-.59-3.24-1.27l-11.35-10.22c-.76-.68-1.55-2.08-1.61-3.23l-4.57-87.29c-.05-1.01.89-2.21 1.61-2.25l85.99-4.51c.72-.04 2.19.61 2.95 1.29l11.35 10.22c.76.68 1.55 2.08 1.61 3.23l1.03 19.7c.06 1.15-.62 1.91-1.77 1.97l-30.2 1.58c-1.01.05-1.76-.63-1.82-1.78l-.35-6.76c-.06-1.15-1.25-1.81-1.97-1.77l-14.67.77c-1.15.06-1.83.82-1.77 1.97l1.85 35.23c.04.72.81 1.69 1.96 1.63l14.67-.77c.72-.04 1.82-1.1 1.78-1.82l-.41-7.91c-.06-1.15.62-1.91 1.63-1.96l30.2-1.58Z" style="fill:none;stroke:#27272a;stroke-linejoin:round;stroke-width:6px"/><path d="M357.35 120.16c1.15-.06 1.91.62 1.97 1.77l2.46 47.02c.05 1.01-.61 2.19-1.76 2.25l-85.56 4.48c-1.01.05-2.48-.59-3.24-1.27l-11.35-10.22c-.76-.68-1.55-2.08-1.61-3.23l-4.57-87.29c-.05-1.01.89-2.21 1.61-2.25l85.99-4.51c.72-.04 2.19.61 2.95 1.29l11.35 10.22c.76.68 1.55 2.08 1.61 3.23l1.03 19.7c.06 1.15-.62 1.91-1.77 1.97l-30.2 1.58c-1.01.05-1.76-.63-1.82-1.78l-.35-6.76c-.06-1.15-1.25-1.81-1.97-1.77l-14.67.77c-1.15.06-1.83.82-1.77 1.97l1.85 35.23c.04.72.81 1.69 1.96 1.63l14.67-.77c.72-.04 1.82-1.1 1.78-1.82l-.41-7.91c-.06-1.15.62-1.91 1.63-1.96l30.2-1.58Z" style="fill:none;stroke:#27272a;stroke-linejoin:round;stroke-width:6px"/><path d="M357.35 120.16c1.15-.06 1.91.62 1.97 1.77l2.46 47.02c.05 1.01-.61 2.19-1.76 2.25l-85.56 4.48c-1.01.05-2.48-.59-3.24-1.27l-11.35-10.22c-.76-.68-1.55-2.08-1.61-3.23l-4.57-87.29c-.05-1.01.89-2.21 1.61-2.25l85.99-4.51c.72-.04 2.19.61 2.95 1.29l11.35 10.22c.76.68 1.55 2.08 1.61 3.23l1.03 19.7c.06 1.15-.62 1.91-1.77 1.97l-30.2 1.58c-1.01.05-1.76-.63-1.82-1.78l-.35-6.76c-.06-1.15-1.25-1.81-1.97-1.77l-14.67.77c-1.15.06-1.83.82-1.77 1.97l1.85 35.23c.04.72.81 1.69 1.96 1.63l14.67-.77c.72-.04 1.82-1.1 1.78-1.82l-.41-7.91c-.06-1.15.62-1.91 1.63-1.96l30.2-1.58Zm95.94-30.93c.66.56 1.1 1.74 1.15 2.69l3.8 72.43c.04.83-.55 1.46-1.56 1.52l-75.03 3.93c-.88.05-2.16-.13-2.82-.69l-9.93-8.45c-.66-.56-1.35-1.72-1.4-2.68l-3.8-72.43c-.04-.83.81-1.48 1.82-1.53l75.02-3.93c.88-.05 2.16.13 2.82.69l9.92 8.45Zm-28.12 42.51c1.01-.05 1.61-.68 1.56-1.64l-1.36-25.89c-.05-.95-.71-1.52-1.72-1.46l-12.86.67c-.63.03-1.61.68-1.56 1.64l1.36 25.89c.05.95 1.09 1.5 1.72 1.47l12.86-.67Z" style="fill:none;stroke:#27272a;stroke-linejoin:round;stroke-width:6px"/><path d="M453.29 89.23c.66.56 1.1 1.74 1.15 2.69l3.8 72.43c.04.83-.55 1.46-1.56 1.52l-75.03 3.93c-.88.05-2.16-.13-2.82-.69l-9.93-8.45c-.66-.56-1.35-1.72-1.4-2.68l-3.8-72.43c-.04-.83.81-1.48 1.82-1.53l75.02-3.93c.88-.05 2.16.13 2.82.69l9.92 8.45Zm-28.12 42.51c1.01-.05 1.61-.68 1.56-1.64l-1.36-25.89c-.05-.95-.71-1.52-1.72-1.46l-12.86.67c-.63.03-1.61.68-1.56 1.64l1.36 25.89c.05.95 1.09 1.5 1.72 1.47l12.86-.67Z" style="fill:none;stroke:#27272a;stroke-linejoin:round;stroke-width:6px"/><path d="M453.29 89.23c.66.56 1.1 1.74 1.15 2.69l3.8 72.43c.04.83-.55 1.46-1.56 1.52l-75.03 3.93c-.88.05-2.16-.13-2.82-.69l-9.93-8.45c-.66-.56-1.35-1.72-1.4-2.68l-3.8-72.43c-.04-.83.81-1.48 1.82-1.53l75.02-3.93c.88-.05 2.16.13 2.82.69l9.92 8.45Zm-28.12 42.51c1.01-.05 1.61-.68 1.56-1.64l-1.36-25.89c-.05-.95-.71-1.52-1.72-1.46l-12.86.67c-.63.03-1.61.68-1.56 1.64l1.36 25.89c.05.95 1.09 1.5 1.72 1.47l12.86-.67ZM129.96 252.03c-1.05.06-1.76.81-1.7 1.96l.38 7.19c.04.72.84 1.69 1.89 1.63l69.53-3.64c1.05-.06 1.84.62 1.9 1.78l3.38 64.57c.06 1.15-.16 2.6-.88 3.36l-13.55 14.41c-.71.76-2.18 1.56-3.38 1.62l-109.92 5.76c-1.2.06-2.01-1.05-2.07-2.05l-2.34-44.58c-.04-.72.66-1.76 1.86-1.83l63.37-3.32c1.2-.06 1.91-.82 1.85-1.97l-.38-7.19c-.05-1.01-.86-2.12-2.07-2.05L74.46 291c-1.2.06-1.99-.62-2.04-1.62l-2.55-48.6c-.05-1.01.62-2.48 1.35-2.95l13.55-14.41c.71-.76 2.18-1.56 3.38-1.62l109.62-5.75c1.05-.06 1.86 1.06 1.9 1.78l1.51 28.76c.05 1.01-.66 1.76-1.71 1.82l-69.53 3.64Z" style="fill:none;stroke:#27272a;stroke-linejoin:round;stroke-width:6px"/><path d="M129.96 252.03c-1.05.06-1.76.81-1.7 1.96l.38 7.19c.04.72.84 1.69 1.89 1.63l69.53-3.64c1.05-.06 1.84.62 1.9 1.78l3.38 64.57c.06 1.15-.16 2.6-.88 3.36l-13.55 14.41c-.71.76-2.18 1.56-3.38 1.62l-109.92 5.76c-1.2.06-2.01-1.05-2.07-2.05l-2.34-44.58c-.04-.72.66-1.76 1.86-1.83l63.37-3.32c1.2-.06 1.91-.82 1.85-1.97l-.38-7.19c-.05-1.01-.86-2.12-2.07-2.05L74.46 291c-1.2.06-1.99-.62-2.04-1.62l-2.55-48.6c-.05-1.01.62-2.48 1.35-2.95l13.55-14.41c.71-.76 2.18-1.56 3.38-1.62l109.62-5.75c1.05-.06 1.86 1.06 1.9 1.78l1.51 28.76c.05 1.01-.66 1.76-1.71 1.82l-69.53 3.64Z" style="fill:none;stroke:#27272a;stroke-linejoin:round;stroke-width:6px"/><path d="M129.96 252.03c-1.05.06-1.76.81-1.7 1.96l.38 7.19c.04.72.84 1.69 1.89 1.63l69.53-3.64c1.05-.06 1.84.62 1.9 1.78l3.38 64.57c.06 1.15-.16 2.6-.88 3.36l-13.55 14.41c-.71.76-2.18 1.56-3.38 1.62l-109.92 5.76c-1.2.06-2.01-1.05-2.07-2.05l-2.34-44.58c-.04-.72.66-1.76 1.86-1.83l63.37-3.32c1.2-.06 1.91-.82 1.85-1.97l-.38-7.19c-.05-1.01-.86-2.12-2.07-2.05L74.46 291c-1.2.06-1.99-.62-2.04-1.62l-2.55-48.6c-.05-1.01.62-2.48 1.35-2.95l13.55-14.41c.71-.76 2.18-1.56 3.38-1.62l109.62-5.75c1.05-.06 1.86 1.06 1.9 1.78l1.51 28.76c.05 1.01-.66 1.76-1.71 1.82l-69.53 3.64Zm174.65-58.52c.76.68 1.55 2.08 1.61 3.23l4.57 87.29c.05 1.01-.6 2.19-1.76 2.25l-30.2 1.58c-1.01.05-1.78-1.06-1.84-2.07l-2.83-53.93c-.04-.72-1.24-1.67-1.96-1.63l-14.67.77c-1.15.06-1.82 1.1-1.78 1.82l2.83 53.93c.05 1.01-.61 2.19-1.61 2.25l-47.17 2.47c-.72.04-1.79-1.06-1.84-2.07l-6.48-123.67c-.05-1.01.92-1.78 1.64-1.82l47.17-2.47c1.01-.05 1.76.63 1.82 1.63l1 19.13c.05 1.01.81 1.69 1.96 1.63l35.23-1.85c.72-.04 2.19.61 2.95 1.29l11.35 10.22Z" style="fill:none;stroke:#27272a;stroke-linejoin:round;stroke-width:6px"/><path d="M304.61 193.51c.76.68 1.55 2.08 1.61 3.23l4.57 87.29c.05 1.01-.6 2.19-1.76 2.25l-30.2 1.58c-1.01.05-1.78-1.06-1.84-2.07l-2.83-53.93c-.04-.72-1.24-1.67-1.96-1.63l-14.67.77c-1.15.06-1.82 1.1-1.78 1.82l2.83 53.93c.05 1.01-.61 2.19-1.61 2.25l-47.17 2.47c-.72.04-1.79-1.06-1.84-2.07l-6.48-123.67c-.05-1.01.92-1.78 1.64-1.82l47.17-2.47c1.01-.05 1.76.63 1.82 1.63l1 19.13c.05 1.01.81 1.69 1.96 1.63l35.23-1.85c.72-.04 2.19.61 2.95 1.29l11.35 10.22Z" style="fill:none;stroke:#27272a;stroke-linejoin:round;stroke-width:6px"/><path d="M304.61 193.51c.76.68 1.55 2.08 1.61 3.23l4.57 87.29c.05 1.01-.6 2.19-1.76 2.25l-30.2 1.58c-1.01.05-1.78-1.06-1.84-2.07l-2.83-53.93c-.04-.72-1.24-1.67-1.96-1.63l-14.67.77c-1.15.06-1.82 1.1-1.78 1.82l2.83 53.93c.05 1.01-.61 2.19-1.61 2.25l-47.17 2.47c-.72.04-1.79-1.06-1.84-2.07l-6.48-123.67c-.05-1.01.92-1.78 1.64-1.82l47.17-2.47c1.01-.05 1.76.63 1.82 1.63l1 19.13c.05 1.01.81 1.69 1.96 1.63l35.23-1.85c.72-.04 2.19.61 2.95 1.29l11.35 10.22Zm108.57-5.69c.76.68 1.26 2.1 1.32 3.25l4.57 87.29c.05 1.01-.63 1.76-1.78 1.82l-85.56 4.48c-1.01.05-2.46-.16-3.22-.84l-11.35-10.22c-.76-.68-1.55-2.08-1.61-3.23l-4.57-87.29c-.05-1.01.92-1.78 2.07-1.84l85.56-4.48c1.01-.05 2.46.16 3.22.84l11.35 10.22Zm-31.93 51.14c1.15-.06 1.83-.82 1.77-1.97l-1.64-31.21c-.06-1.15-.82-1.83-1.97-1.77l-14.67.77c-.72.04-1.83.82-1.77 1.97l1.64 31.21c.06 1.15 1.25 1.81 1.97 1.77l14.67-.77Z" style="fill:none;stroke:#27272a;stroke-linejoin:round;stroke-width:6px"/><path d="M413.18 187.82c.76.68 1.26 2.1 1.32 3.25l4.57 87.29c.05 1.01-.63 1.76-1.78 1.82l-85.56 4.48c-1.01.05-2.46-.16-3.22-.84l-11.35-10.22c-.76-.68-1.55-2.08-1.61-3.23l-4.57-87.29c-.05-1.01.92-1.78 2.07-1.84l85.56-4.48c1.01-.05 2.46.16 3.22.84l11.35 10.22Zm-31.93 51.14c1.15-.06 1.83-.82 1.77-1.97l-1.64-31.21c-.06-1.15-.82-1.83-1.97-1.77l-14.67.77c-.72.04-1.83.82-1.77 1.97l1.64 31.21c.06 1.15 1.25 1.81 1.97 1.77l14.67-.77Z" style="fill:none;stroke:#27272a;stroke-linejoin:round;stroke-width:6px"/><path d="M413.18 187.82c.76.68 1.26 2.1 1.32 3.25l4.57 87.29c.05 1.01-.63 1.76-1.78 1.82l-85.56 4.48c-1.01.05-2.46-.16-3.22-.84l-11.35-10.22c-.76-.68-1.55-2.08-1.61-3.23l-4.57-87.29c-.05-1.01.92-1.78 2.07-1.84l85.56-4.48c1.01-.05 2.46.16 3.22.84l11.35 10.22Zm-31.93 51.14c1.15-.06 1.83-.82 1.77-1.97l-1.64-31.21c-.06-1.15-.82-1.83-1.97-1.77l-14.67.77c-.72.04-1.83.82-1.77 1.97l1.64 31.21c.06 1.15 1.25 1.81 1.97 1.77l14.67-.77Zm129.12-1.48c1-.05 1.66.52 1.7 1.36l1.9 36.24c.04.85-.55 1.48-1.55 1.53l-62.65 3.28c-.88.05-2.14-.13-2.8-.7l-9.87-8.57c-.66-.57-1.1-1.76-1.15-2.73l-2.68-51.22c-.05-.97-.96-1.52-1.59-1.49l-9.15.48c-.63.03-1.54-.52-1.58-1.37l-1-19.09c-.04-.85.78-1.86 1.41-1.89l9.15-.48c.63-.03 1.47-.68 1.43-1.53l-.84-16.07c-.04-.85.53-1.84 1.53-1.9l40.97-2.15c.63-.03 1.68.88 1.72 1.73l.84 16.07c.04.85.7 1.42 1.58 1.37l30.07-1.58c1-.05 1.68.88 1.72 1.73l1 19.09c.04.85-.55 1.48-1.55 1.54l-30.07 1.58c-.88.05-1.47.68-1.42 1.65l1.22 23.19c.05.97.71 1.54 1.59 1.49l30.07-1.58Z" style="fill:none;stroke:#27272a;stroke-linejoin:round;stroke-width:6px"/><path d="M510.37 237.48c1-.05 1.66.52 1.7 1.36l1.9 36.24c.04.85-.55 1.48-1.55 1.53l-62.65 3.28c-.88.05-2.14-.13-2.8-.7l-9.87-8.57c-.66-.57-1.1-1.76-1.15-2.73l-2.68-51.22c-.05-.97-.96-1.52-1.59-1.49l-9.15.48c-.63.03-1.54-.52-1.58-1.37l-1-19.09c-.04-.85.78-1.86 1.41-1.89l9.15-.48c.63-.03 1.47-.68 1.43-1.53l-.84-16.07c-.04-.85.53-1.84 1.53-1.9l40.97-2.15c.63-.03 1.68.88 1.72 1.73l.84 16.07c.04.85.7 1.42 1.58 1.37l30.07-1.58c1-.05 1.68.88 1.72 1.73l1 19.09c.04.85-.55 1.48-1.55 1.54l-30.07 1.58c-.88.05-1.47.68-1.42 1.65l1.22 23.19c.05.97.71 1.54 1.59 1.49l30.07-1.58Z" style="fill:none;stroke:#27272a;stroke-linejoin:round;stroke-width:6px"/><path d="M510.37 237.48c1-.05 1.66.52 1.7 1.36l1.9 36.24c.04.85-.55 1.48-1.55 1.53l-62.65 3.28c-.88.05-2.14-.13-2.8-.7l-9.87-8.57c-.66-.57-1.1-1.76-1.15-2.73l-2.68-51.22c-.05-.97-.96-1.52-1.59-1.49l-9.15.48c-.63.03-1.54-.52-1.58-1.37l-1-19.09c-.04-.85.78-1.86 1.41-1.89l9.15-.48c.63-.03 1.47-.68 1.43-1.53l-.84-16.07c-.04-.85.53-1.84 1.53-1.9l40.97-2.15c.63-.03 1.68.88 1.72 1.73l.84 16.07c.04.85.7 1.42 1.58 1.37l30.07-1.58c1-.05 1.68.88 1.72 1.73l1 19.09c.04.85-.55 1.48-1.55 1.54l-30.07 1.58c-.88.05-1.47.68-1.42 1.65l1.22 23.19c.05.97.71 1.54 1.59 1.49l30.07-1.58Z" style="fill:none;stroke:#27272a;stroke-linejoin:round;stroke-width:6px"/><path d="M140.97 181.14c-.35-.99-1.55-1.65-2.28-1.61l-6.14.32c-1.17.06-1.86.82-1.81 1.83l1.53 29.19c.05 1.01-.62 2.19-1.64 2.25l-59.21 3.1c-1.17.06-1.96-1.05-2.01-2.06L62.91 90.2c-.04-.72.63-1.91 1.8-1.97l107.01-5.61c1.17-.06 2.67.58 3.44 1.26l14.61 12.93c.77.68 1.57 2.08 1.63 3.23l3.91 74.63c.06 1.15-.63 1.91-1.8 1.97l-5.12.27c-1.02.05-1.42.8-1.37 1.8l10.7 27.99c.81 1.4-.29 2.9-1.75 2.98l-41.23 2.16c-1.17.06-2.25-1.03-2.73-1.73l-11.05-28.98Zm-12.82-48.93c.05 1.01.82 1.69 1.99 1.63l18.57-.97c1.17-.06 1.86-.82 1.81-1.82l-.79-15.1c-.06-1.15-.84-2.12-2.01-2.06l-18.57.97c-1.17.06-1.85 1.11-1.79 2.26l.79 15.1Z" style="fill:#22d3ee"/><path d="M140.97 181.14c-.35-.99-1.55-1.65-2.28-1.61l-6.14.32c-1.17.06-1.86.82-1.81 1.83l1.53 29.19c.05 1.01-.62 2.19-1.64 2.25l-59.21 3.1c-1.17.06-1.96-1.05-2.01-2.06L62.91 90.2c-.04-.72.63-1.91 1.8-1.97l107.01-5.61c1.17-.06 2.67.58 3.44 1.26l14.61 12.93c.77.68 1.57 2.08 1.63 3.23l3.91 74.63c.06 1.15-.63 1.91-1.8 1.97l-5.12.27c-1.02.05-1.42.8-1.37 1.8l10.7 27.99c.81 1.4-.29 2.9-1.75 2.98l-41.23 2.16c-1.17.06-2.25-1.03-2.73-1.73l-11.05-28.98Zm-12.82-48.93c.05 1.01.82 1.69 1.99 1.63l18.57-.97c1.17-.06 1.86-.82 1.81-1.82l-.79-15.1c-.06-1.15-.84-2.12-2.01-2.06l-18.57.97c-1.17.06-1.85 1.11-1.79 2.26l.79 15.1Z" style="fill:url(#a)"/><path d="M243.01 26.63c.66-.03 1.76.63 1.82 1.63l1 19.13c.05 1.01-.95 2.21-1.61 2.25l-47.16 2.47c-.67.03-1.65-1.07-1.71-2.07l-1-19.13c-.05-1.01.84-1.77 1.5-1.81l47.16-2.47Zm-46.85 38.79c-.05-1.01.84-1.77 1.5-1.81l47.16-2.47c.66-.03 1.76.63 1.82 1.64l4.67 89.16c.05 1.01-.95 2.21-1.61 2.25l-47.16 2.47c-.67.03-1.65-1.07-1.71-2.07l-4.67-89.16Z" style="fill:#f472b6"/><path d="M243.01 26.63c.66-.03 1.76.63 1.82 1.63l1 19.13c.05 1.01-.95 2.21-1.61 2.25l-47.16 2.47c-.67.03-1.65-1.07-1.71-2.07l-1-19.13c-.05-1.01.84-1.77 1.5-1.81l47.16-2.47Zm-46.85 38.79c-.05-1.01.84-1.77 1.5-1.81l47.16-2.47c.66-.03 1.76.63 1.82 1.64l4.67 89.16c.05 1.01-.95 2.21-1.61 2.25l-47.16 2.47c-.67.03-1.65-1.07-1.71-2.07l-4.67-89.16Z" style="fill:url(#b)"/><path d="M357.35 120.16c1.15-.06 1.91.62 1.97 1.77l2.46 47.02c.05 1.01-.61 2.19-1.76 2.25l-85.56 4.48c-1.01.05-2.48-.59-3.24-1.27l-11.35-10.22c-.76-.68-1.55-2.08-1.61-3.23l-4.57-87.29c-.05-1.01.89-2.21 1.61-2.25l85.99-4.51c.72-.04 2.19.61 2.95 1.29l11.35 10.22c.76.68 1.55 2.08 1.61 3.23l1.03 19.7c.06 1.15-.62 1.91-1.77 1.97l-30.2 1.58c-1.01.05-1.76-.63-1.82-1.78l-.35-6.76c-.06-1.15-1.25-1.81-1.97-1.77l-14.67.77c-1.15.06-1.83.82-1.77 1.97l1.85 35.23c.04.72.81 1.69 1.96 1.63l14.67-.77c.72-.04 1.82-1.1 1.78-1.82l-.41-7.91c-.06-1.15.62-1.91 1.63-1.96l30.2-1.58Z" style="fill:#f472b6"/><path d="M357.35 120.16c1.15-.06 1.91.62 1.97 1.77l2.46 47.02c.05 1.01-.61 2.19-1.76 2.25l-85.56 4.48c-1.01.05-2.48-.59-3.24-1.27l-11.35-10.22c-.76-.68-1.55-2.08-1.61-3.23l-4.57-87.29c-.05-1.01.89-2.21 1.61-2.25l85.99-4.51c.72-.04 2.19.61 2.95 1.29l11.35 10.22c.76.68 1.55 2.08 1.61 3.23l1.03 19.7c.06 1.15-.62 1.91-1.77 1.97l-30.2 1.58c-1.01.05-1.76-.63-1.82-1.78l-.35-6.76c-.06-1.15-1.25-1.81-1.97-1.77l-14.67.77c-1.15.06-1.83.82-1.77 1.97l1.85 35.23c.04.72.81 1.69 1.96 1.63l14.67-.77c.72-.04 1.82-1.1 1.78-1.82l-.41-7.91c-.06-1.15.62-1.91 1.63-1.96l30.2-1.58Z" style="fill:url(#b)"/><path d="M453.29 89.23c.66.56 1.1 1.74 1.15 2.69l3.8 72.43c.04.83-.55 1.46-1.56 1.52l-75.03 3.93c-.88.05-2.16-.13-2.82-.69l-9.93-8.45c-.66-.56-1.35-1.72-1.4-2.68l-3.8-72.43c-.04-.83.81-1.48 1.82-1.53l75.02-3.93c.88-.05 2.16.13 2.82.69l9.92 8.45Zm-28.12 42.51c1.01-.05 1.61-.68 1.56-1.64l-1.36-25.89c-.05-.95-.71-1.52-1.72-1.46l-12.86.67c-.63.03-1.61.68-1.56 1.64l1.36 25.89c.05.95 1.09 1.5 1.72 1.47l12.86-.67Z" style="fill:#f472b6"/><path d="M453.29 89.23c.66.56 1.1 1.74 1.15 2.69l3.8 72.43c.04.83-.55 1.46-1.56 1.52l-75.03 3.93c-.88.05-2.16-.13-2.82-.69l-9.93-8.45c-.66-.56-1.35-1.72-1.4-2.68l-3.8-72.43c-.04-.83.81-1.48 1.82-1.53l75.02-3.93c.88-.05 2.16.13 2.82.69l9.92 8.45Zm-28.12 42.51c1.01-.05 1.61-.68 1.56-1.64l-1.36-25.89c-.05-.95-.71-1.52-1.72-1.46l-12.86.67c-.63.03-1.61.68-1.56 1.64l1.36 25.89c.05.95 1.09 1.5 1.72 1.47l12.86-.67Z" style="fill:url(#b)"/><path d="M129.96 252.03c-1.05.06-1.76.81-1.7 1.96l.38 7.19c.04.72.84 1.69 1.89 1.63l69.53-3.64c1.05-.06 1.84.62 1.9 1.78l3.38 64.57c.06 1.15-.16 2.6-.88 3.36l-13.55 14.41c-.71.76-2.18 1.56-3.38 1.62l-109.92 5.76c-1.2.06-2.01-1.05-2.07-2.05l-2.34-44.58c-.04-.72.66-1.76 1.86-1.83l63.37-3.32c1.2-.06 1.91-.82 1.85-1.97l-.38-7.19c-.05-1.01-.86-2.12-2.07-2.05L74.46 291c-1.2.06-1.99-.62-2.04-1.62l-2.55-48.6c-.05-1.01.62-2.48 1.35-2.95l13.55-14.41c.71-.76 2.18-1.56 3.38-1.62l109.62-5.75c1.05-.06 1.86 1.06 1.9 1.78l1.51 28.76c.05 1.01-.66 1.76-1.71 1.82l-69.53 3.64Z" style="fill:#f472b6"/><path d="M129.96 252.03c-1.05.06-1.76.81-1.7 1.96l.38 7.19c.04.72.84 1.69 1.89 1.63l69.53-3.64c1.05-.06 1.84.62 1.9 1.78l3.38 64.57c.06 1.15-.16 2.6-.88 3.36l-13.55 14.41c-.71.76-2.18 1.56-3.38 1.62l-109.92 5.76c-1.2.06-2.01-1.05-2.07-2.05l-2.34-44.58c-.04-.72.66-1.76 1.86-1.83l63.37-3.32c1.2-.06 1.91-.82 1.85-1.97l-.38-7.19c-.05-1.01-.86-2.12-2.07-2.05L74.46 291c-1.2.06-1.99-.62-2.04-1.62l-2.55-48.6c-.05-1.01.62-2.48 1.35-2.95l13.55-14.41c.71-.76 2.18-1.56 3.38-1.62l109.62-5.75c1.05-.06 1.86 1.06 1.9 1.78l1.51 28.76c.05 1.01-.66 1.76-1.71 1.82l-69.53 3.64Z" style="fill:url(#b)"/><path d="M304.61 193.51c.76.68 1.55 2.08 1.61 3.23l4.57 87.29c.05 1.01-.6 2.19-1.76 2.25l-30.2 1.58c-1.01.05-1.78-1.06-1.84-2.07l-2.83-53.93c-.04-.72-1.24-1.67-1.96-1.63l-14.67.77c-1.15.06-1.82 1.1-1.78 1.82l2.83 53.93c.05 1.01-.61 2.19-1.61 2.25l-47.17 2.47c-.72.04-1.79-1.06-1.84-2.07l-6.48-123.67c-.05-1.01.92-1.78 1.64-1.82l47.17-2.47c1.01-.05 1.76.63 1.82 1.63l1 19.13c.05 1.01.81 1.69 1.96 1.63l35.23-1.85c.72-.04 2.19.61 2.95 1.29l11.35 10.22Z" style="fill:#22d3ee"/><path d="M304.61 193.51c.76.68 1.55 2.08 1.61 3.23l4.57 87.29c.05 1.01-.6 2.19-1.76 2.25l-30.2 1.58c-1.01.05-1.78-1.06-1.84-2.07l-2.83-53.93c-.04-.72-1.24-1.67-1.96-1.63l-14.67.77c-1.15.06-1.82 1.1-1.78 1.82l2.83 53.93c.05 1.01-.61 2.19-1.61 2.25l-47.17 2.47c-.72.04-1.79-1.06-1.84-2.07l-6.48-123.67c-.05-1.01.92-1.78 1.64-1.82l47.17-2.47c1.01-.05 1.76.63 1.82 1.63l1 19.13c.05 1.01.81 1.69 1.96 1.63l35.23-1.85c.72-.04 2.19.61 2.95 1.29l11.35 10.22Z" style="fill:url(#a)"/><path d="M413.18 187.82c.76.68 1.26 2.1 1.32 3.25l4.57 87.29c.05 1.01-.63 1.76-1.78 1.82l-85.56 4.48c-1.01.05-2.46-.16-3.22-.84l-11.35-10.22c-.76-.68-1.55-2.08-1.61-3.23l-4.57-87.29c-.05-1.01.92-1.78 2.07-1.84l85.56-4.48c1.01-.05 2.46.16 3.22.84l11.35 10.22Zm-31.93 51.14c1.15-.06 1.83-.82 1.77-1.97l-1.64-31.21c-.06-1.15-.82-1.83-1.97-1.77l-14.67.77c-.72.04-1.83.82-1.77 1.97l1.64 31.21c.06 1.15 1.25 1.81 1.97 1.77l14.67-.77Z" style="fill:#f472b6"/><path d="M413.18 187.82c.76.68 1.26 2.1 1.32 3.25l4.57 87.29c.05 1.01-.63 1.76-1.78 1.82l-85.56 4.48c-1.01.05-2.46-.16-3.22-.84l-11.35-10.22c-.76-.68-1.55-2.08-1.61-3.23l-4.57-87.29c-.05-1.01.92-1.78 2.07-1.84l85.56-4.48c1.01-.05 2.46.16 3.22.84l11.35 10.22Zm-31.93 51.14c1.15-.06 1.83-.82 1.77-1.97l-1.64-31.21c-.06-1.15-.82-1.83-1.97-1.77l-14.67.77c-.72.04-1.83.82-1.77 1.97l1.64 31.21c.06 1.15 1.25 1.81 1.97 1.77l14.67-.77Z" style="fill:url(#b)"/><path d="M510.37 237.48c1-.05 1.66.52 1.7 1.36l1.9 36.24c.04.85-.55 1.48-1.55 1.53l-62.65 3.28c-.88.05-2.14-.13-2.8-.7l-9.87-8.57c-.66-.57-1.1-1.76-1.15-2.73l-2.68-51.22c-.05-.97-.96-1.52-1.59-1.49l-9.15.48c-.63.03-1.54-.52-1.58-1.37l-1-19.09c-.04-.85.78-1.86 1.41-1.89l9.15-.48c.63-.03 1.47-.68 1.43-1.53l-.84-16.07c-.04-.85.53-1.84 1.53-1.9l40.97-2.15c.63-.03 1.68.88 1.72 1.73l.84 16.07c.04.85.7 1.42 1.58 1.37l30.07-1.58c1-.05 1.68.88 1.72 1.73l1 19.09c.04.85-.55 1.48-1.55 1.54l-30.07 1.58c-.88.05-1.47.68-1.42 1.65l1.22 23.19c.05.97.71 1.54 1.59 1.49l30.07-1.58Z" style="fill:#f472b6"/><path d="M510.37 237.48c1-.05 1.66.52 1.7 1.36l1.9 36.24c.04.85-.55 1.48-1.55 1.53l-62.65 3.28c-.88.05-2.14-.13-2.8-.7l-9.87-8.57c-.66-.57-1.1-1.76-1.15-2.73l-2.68-51.22c-.05-.97-.96-1.52-1.59-1.49l-9.15.48c-.63.03-1.54-.52-1.58-1.37l-1-19.09c-.04-.85.78-1.86 1.41-1.89l9.15-.48c.63-.03 1.47-.68 1.43-1.53l-.84-16.07c-.04-.85.53-1.84 1.53-1.9l40.97-2.15c.63-.03 1.68.88 1.72 1.73l.84 16.07c.04.85.7 1.42 1.58 1.37l30.07-1.58c1-.05 1.68.88 1.72 1.73l1 19.09c.04.85-.55 1.48-1.55 1.54l-30.07 1.58c-.88.05-1.47.68-1.42 1.65l1.22 23.19c.05.97.71 1.54 1.59 1.49l30.07-1.58Z" style="fill:url(#b)"/><path d="M154.7 210.85c-.58.03-1.33-.58-1.79-1.21l-11-28.86c-.48-1.39-2.12-2.31-3.27-2.25l-6.14.32c-1.68.09-2.84 1.3-2.76 2.88l1.53 29.19c.03.55-.34 1.18-.7 1.2l-59.21 3.1c-.56.03-.94-.63-.96-1.11L63.9 90.15c-.01-.21.28-.89.86-.92l107.01-5.61c.88-.05 2.14.5 2.72 1.01l14.61 12.93c.58.51 1.25 1.68 1.3 2.53l3.91 74.63c.03.59-.24.89-.86.92l-5.12.27c-1.5.08-2.4 1.2-2.32 2.85v.16l10.8 28.21.04.07c.18.31.19.61.03.89-.18.34-.56.57-.97.59l-41.23 2.16Zm-25.61-97c-1.65.09-2.83 1.51-2.73 3.31l.79 15.1c.08 1.58 1.36 2.66 3.04 2.57l18.57-.97c1.68-.09 2.84-1.3 2.76-2.88l-.79-15.1c-.09-1.8-1.41-3.09-3.06-3l-18.57.97Z" style="fill:none;stroke:#fff;stroke-linejoin:round;stroke-width:3px"/><path d="M154.7 210.85c-.58.03-1.33-.58-1.79-1.21l-11-28.86c-.48-1.39-2.12-2.31-3.27-2.25l-6.14.32c-1.68.09-2.84 1.3-2.76 2.88l1.53 29.19c.03.55-.34 1.18-.7 1.2l-59.21 3.1c-.56.03-.94-.63-.96-1.11L63.9 90.15c-.01-.21.28-.89.86-.92l107.01-5.61c.88-.05 2.14.5 2.72 1.01l14.61 12.93c.58.51 1.25 1.68 1.3 2.53l3.91 74.63c.03.59-.24.89-.86.92l-5.12.27c-1.5.08-2.4 1.2-2.32 2.85v.16l10.8 28.21.04.07c.18.31.19.61.03.89-.18.34-.56.57-.97.59l-41.23 2.16Zm-25.61-97c-1.65.09-2.83 1.51-2.73 3.31l.79 15.1c.08 1.58 1.36 2.66 3.04 2.57l18.57-.97c1.68-.09 2.84-1.3 2.76-2.88l-.79-15.1c-.09-1.8-1.41-3.09-3.06-3l-18.57.97Z" style="fill:none;stroke:#fff;stroke-linejoin:round;stroke-width:3px"/><path d="M154.7 210.85c-.58.03-1.33-.58-1.79-1.21l-11-28.86c-.48-1.39-2.12-2.31-3.27-2.25l-6.14.32c-1.68.09-2.84 1.3-2.76 2.88l1.53 29.19c.03.55-.34 1.18-.7 1.2l-59.21 3.1c-.56.03-.94-.63-.96-1.11L63.9 90.15c-.01-.21.28-.89.86-.92l107.01-5.61c.88-.05 2.14.5 2.72 1.01l14.61 12.93c.58.51 1.25 1.68 1.3 2.53l3.91 74.63c.03.59-.24.89-.86.92l-5.12.27c-1.5.08-2.4 1.2-2.32 2.85v.16l10.8 28.21.04.07c.18.31.19.61.03.89-.18.34-.56.57-.97.59l-41.23 2.16Zm-25.61-97c-1.65.09-2.83 1.51-2.73 3.31l.79 15.1c.08 1.58 1.36 2.66 3.04 2.57l18.57-.97c1.68-.09 2.84-1.3 2.76-2.88l-.79-15.1c-.09-1.8-1.41-3.09-3.06-3l-18.57.97Zm73.4 41.8c-.13-.07-.63-.65-.66-1.13l-4.67-89.16c-.02-.44.42-.74.56-.76l47.16-2.47c.2 0 .75.31.77.69l4.67 89.16c.02.44-.46 1.08-.72 1.2l-47.11 2.47Zm-5.48-104.54c-.13-.07-.63-.65-.66-1.13l-1-19.13c-.02-.44.42-.74.56-.76l47.16-2.47c.2 0 .75.31.77.69l1 19.13c.02.44-.46 1.08-.72 1.2l-47.11 2.47Z" style="fill:none;stroke:#fff;stroke-linejoin:round;stroke-width:3px"/><path d="M202.49 155.65c-.13-.07-.63-.65-.66-1.13l-4.67-89.16c-.02-.44.42-.74.56-.76l47.16-2.47c.2 0 .75.31.77.69l4.67 89.16c.02.44-.46 1.08-.72 1.2l-47.11 2.47Zm-5.48-104.54c-.13-.07-.63-.65-.66-1.13l-1-19.13c-.02-.44.42-.74.56-.76l47.16-2.47c.2 0 .75.31.77.69l1 19.13c.02.44-.46 1.08-.72 1.2l-47.11 2.47Z" style="fill:none;stroke:#fff;stroke-linejoin:round;stroke-width:3px"/><path d="M202.49 155.65c-.13-.07-.63-.65-.66-1.13l-4.67-89.16c-.02-.44.42-.74.56-.76l47.16-2.47c.2 0 .75.31.77.69l4.67 89.16c.02.44-.46 1.08-.72 1.2l-47.11 2.47Zm-5.48-104.54c-.13-.07-.63-.65-.66-1.13l-1-19.13c-.02-.44.42-.74.56-.76l47.16-2.47c.2 0 .75.31.77.69l1 19.13c.02.44-.46 1.08-.72 1.2l-47.11 2.47Zm77.4 123.58c-.67.04-1.9-.46-2.52-1.02l-11.35-10.22c-.57-.51-1.24-1.68-1.28-2.54l-4.57-87.29c-.02-.47.48-1.12.72-1.2l85.94-4.5c.39-.02 1.61.47 2.23 1.03l11.35 10.22c.57.51 1.24 1.68 1.28 2.54l1.03 19.7c.03.6-.22.88-.83.92l-30.2 1.58c-.6.03-.75-.44-.77-.83l-.35-6.76c-.09-1.78-1.82-2.78-3.02-2.72l-14.67.77c-1.69.09-2.81 1.33-2.72 3.02l1.85 35.23c.07 1.29 1.32 2.66 3.01 2.57l14.67-.77c1.2-.06 2.8-1.52 2.73-2.88l-.41-7.91c-.02-.4.08-.88.68-.91l30.2-1.58c.6-.03.89.22.92.82l2.46 47.02c.03.48-.27 1.17-.81 1.2l-85.56 4.48Z" style="fill:none;stroke:#fff;stroke-linejoin:round;stroke-width:3px"/><path d="M274.41 174.69c-.67.04-1.9-.46-2.52-1.02l-11.35-10.22c-.57-.51-1.24-1.68-1.28-2.54l-4.57-87.29c-.02-.47.48-1.12.72-1.2l85.94-4.5c.39-.02 1.61.47 2.23 1.03l11.35 10.22c.57.51 1.24 1.68 1.28 2.54l1.03 19.7c.03.6-.22.88-.83.92l-30.2 1.58c-.6.03-.75-.44-.77-.83l-.35-6.76c-.09-1.78-1.82-2.78-3.02-2.72l-14.67.77c-1.69.09-2.81 1.33-2.72 3.02l1.85 35.23c.07 1.29 1.32 2.66 3.01 2.57l14.67-.77c1.2-.06 2.8-1.52 2.73-2.88l-.41-7.91c-.02-.4.08-.88.68-.91l30.2-1.58c.6-.03.89.22.92.82l2.46 47.02c.03.48-.27 1.17-.81 1.2l-85.56 4.48Z" style="fill:none;stroke:#fff;stroke-linejoin:round;stroke-width:3px"/><path d="M274.41 174.69c-.67.04-1.9-.46-2.52-1.02l-11.35-10.22c-.57-.51-1.24-1.68-1.28-2.54l-4.57-87.29c-.02-.47.48-1.12.72-1.2l85.94-4.5c.39-.02 1.61.47 2.23 1.03l11.35 10.22c.57.51 1.24 1.68 1.28 2.54l1.03 19.7c.03.6-.22.88-.83.92l-30.2 1.58c-.6.03-.75-.44-.77-.83l-.35-6.76c-.09-1.78-1.82-2.78-3.02-2.72l-14.67.77c-1.69.09-2.81 1.33-2.72 3.02l1.85 35.23c.07 1.29 1.32 2.66 3.01 2.57l14.67-.77c1.2-.06 2.8-1.52 2.73-2.88l-.41-7.91c-.02-.4.08-.88.68-.91l30.2-1.58c.6-.03.89.22.92.82l2.46 47.02c.03.48-.27 1.17-.81 1.2l-85.56 4.48Zm107.18-5.89c-.84.04-1.77-.15-2.12-.45l-9.93-8.45c-.47-.4-1.02-1.31-1.05-1.97l-3.8-72.43c0-.17.35-.45.87-.48l75.02-3.93c.84-.04 1.77.16 2.12.45l9.92 8.45c.4.34.76 1.23.8 1.98l3.8 72.43c.02.29-.19.44-.62.47l-75.03 3.93Zm29.15-66.38c-1.1.06-2.59 1.11-2.51 2.69l1.36 25.89c.08 1.58 1.67 2.47 2.77 2.41l12.86-.67c1.55-.08 2.58-1.19 2.5-2.69l-1.36-25.89c-.08-1.5-1.22-2.49-2.77-2.41l-12.86.67Z" style="fill:none;stroke:#fff;stroke-linejoin:round;stroke-width:3px"/><path d="M381.59 168.8c-.84.04-1.77-.15-2.12-.45l-9.93-8.45c-.47-.4-1.02-1.31-1.05-1.97l-3.8-72.43c0-.17.35-.45.87-.48l75.02-3.93c.84-.04 1.77.16 2.12.45l9.92 8.45c.4.34.76 1.23.8 1.98l3.8 72.43c.02.29-.19.44-.62.47l-75.03 3.93Zm29.15-66.38c-1.1.06-2.59 1.11-2.51 2.69l1.36 25.89c.08 1.58 1.67 2.47 2.77 2.41l12.86-.67c1.55-.08 2.58-1.19 2.5-2.69l-1.36-25.89c-.08-1.5-1.22-2.49-2.77-2.41l-12.86.67Z" style="fill:none;stroke:#fff;stroke-linejoin:round;stroke-width:3px"/><path d="M381.59 168.8c-.84.04-1.77-.15-2.12-.45l-9.93-8.45c-.47-.4-1.02-1.31-1.05-1.97l-3.8-72.43c0-.17.35-.45.87-.48l75.02-3.93c.84-.04 1.77.16 2.12.45l9.92 8.45c.4.34.76 1.23.8 1.98l3.8 72.43c.02.29-.19.44-.62.47l-75.03 3.93Zm29.15-66.38c-1.1.06-2.59 1.11-2.51 2.69l1.36 25.89c.08 1.58 1.67 2.47 2.77 2.41l12.86-.67c1.55-.08 2.58-1.19 2.5-2.69l-1.36-25.89c-.08-1.5-1.22-2.49-2.77-2.41l-12.86.67ZM77.55 349.67c-.61.03-.99-.63-1.01-1.11l-2.34-44.58c0-.15.26-.74.92-.78l63.37-3.32c1.77-.09 2.89-1.31 2.8-3.02l-.38-7.19c-.08-1.52-1.29-3.1-3.12-3l-63.37 3.32c-.36.02-.96-.04-.99-.68l-2.55-48.6c-.04-.69.49-1.8.9-2.06l.1-.07 13.63-14.5c.56-.59 1.77-1.26 2.7-1.31l109.62-5.75c.42-.02.84.58.85.83l1.51 28.76c.02.45-.26.74-.77.77l-69.53 3.64c-1.62.09-2.74 1.35-2.65 3.01l.38 7.19c.07 1.29 1.34 2.66 2.94 2.58l69.53-3.64c.66-.03.83.43.85.83l3.38 64.57c.06 1.1-.19 2.18-.61 2.63l-13.55 14.41c-.56.59-1.77 1.26-2.7 1.31l-109.92 5.76Z" style="fill:none;stroke:#fff;stroke-linejoin:round;stroke-width:3px"/><path d="M77.55 349.67c-.61.03-.99-.63-1.01-1.11l-2.34-44.58c0-.15.26-.74.92-.78l63.37-3.32c1.77-.09 2.89-1.31 2.8-3.02l-.38-7.19c-.08-1.52-1.29-3.1-3.12-3l-63.37 3.32c-.36.02-.96-.04-.99-.68l-2.55-48.6c-.04-.69.49-1.8.9-2.06l.1-.07 13.63-14.5c.56-.59 1.77-1.26 2.7-1.31l109.62-5.75c.42-.02.84.58.85.83l1.51 28.76c.02.45-.26.74-.77.77l-69.53 3.64c-1.62.09-2.74 1.35-2.65 3.01l.38 7.19c.07 1.29 1.34 2.66 2.94 2.58l69.53-3.64c.66-.03.83.43.85.83l3.38 64.57c.06 1.1-.19 2.18-.61 2.63l-13.55 14.41c-.56.59-1.77 1.26-2.7 1.31l-109.92 5.76Z" style="fill:none;stroke:#fff;stroke-linejoin:round;stroke-width:3px"/><path d="M77.55 349.67c-.61.03-.99-.63-1.01-1.11l-2.34-44.58c0-.15.26-.74.92-.78l63.37-3.32c1.77-.09 2.89-1.31 2.8-3.02l-.38-7.19c-.08-1.52-1.29-3.1-3.12-3l-63.37 3.32c-.36.02-.96-.04-.99-.68l-2.55-48.6c-.04-.69.49-1.8.9-2.06l.1-.07 13.63-14.5c.56-.59 1.77-1.26 2.7-1.31l109.62-5.75c.42-.02.84.58.85.83l1.51 28.76c.02.45-.26.74-.77.77l-69.53 3.64c-1.62.09-2.74 1.35-2.65 3.01l.38 7.19c.07 1.29 1.34 2.66 2.94 2.58l69.53-3.64c.66-.03.83.43.85.83l3.38 64.57c.06 1.1-.19 2.18-.61 2.63l-13.55 14.41c-.56.59-1.77 1.26-2.7 1.31l-109.92 5.76Zm201.24-62.8c-.34.02-.76-.58-.79-1.12l-2.83-53.93c-.07-1.35-1.81-2.64-3.01-2.57l-14.67.77c-1.69.09-2.79 1.59-2.72 2.88l2.83 53.93c.03.54-.33 1.18-.67 1.2l-47.17 2.47c-.2-.05-.76-.65-.79-1.12l-6.48-123.67c-.02-.41.48-.75.69-.76l47.17-2.47c.46-.02.74.23.77.69l1 19.13c.08 1.58 1.35 2.66 3.01 2.57l35.23-1.85c.39-.02 1.61.47 2.23 1.03l11.35 10.22c.57.51 1.24 1.68 1.28 2.54l4.57 87.29c.03.48-.27 1.17-.81 1.2l-30.2 1.58Z" style="fill:none;stroke:#fff;stroke-linejoin:round;stroke-width:3px"/><path d="M278.79 286.87c-.34.02-.76-.58-.79-1.12l-2.83-53.93c-.07-1.35-1.81-2.64-3.01-2.57l-14.67.77c-1.69.09-2.79 1.59-2.72 2.88l2.83 53.93c.03.54-.33 1.18-.67 1.2l-47.17 2.47c-.2-.05-.76-.65-.79-1.12l-6.48-123.67c-.02-.41.48-.75.69-.76l47.17-2.47c.46-.02.74.23.77.69l1 19.13c.08 1.58 1.35 2.66 3.01 2.57l35.23-1.85c.39-.02 1.61.47 2.23 1.03l11.35 10.22c.57.51 1.24 1.68 1.28 2.54l4.57 87.29c.03.48-.27 1.17-.81 1.2l-30.2 1.58Z" style="fill:none;stroke:#fff;stroke-linejoin:round;stroke-width:3px"/><path d="M278.79 286.87c-.34.02-.76-.58-.79-1.12l-2.83-53.93c-.07-1.35-1.81-2.64-3.01-2.57l-14.67.77c-1.69.09-2.79 1.59-2.72 2.88l2.83 53.93c.03.54-.33 1.18-.67 1.2l-47.17 2.47c-.2-.05-.76-.65-.79-1.12l-6.48-123.67c-.02-.41.48-.75.69-.76l47.17-2.47c.46-.02.74.23.77.69l1 19.13c.08 1.58 1.35 2.66 3.01 2.57l35.23-1.85c.39-.02 1.61.47 2.23 1.03l11.35 10.22c.57.51 1.24 1.68 1.28 2.54l4.57 87.29c.03.48-.27 1.17-.81 1.2l-30.2 1.58Zm52.89-3.2c-.99.05-2.07-.2-2.5-.59l-11.35-10.22c-.57-.51-1.24-1.68-1.28-2.54l-4.57-87.29c-.02-.39.49-.75 1.12-.79l85.56-4.48c.99-.05 2.07.2 2.5.59l11.35 10.22c.51.46.94 1.58.99 2.56l4.57 87.29c.03.6-.43.75-.83.77l-85.56 4.48Zm33.02-79.89c-1.2.06-2.81 1.24-2.72 3.02l1.64 31.21c.09 1.78 1.82 2.78 3.02 2.72l14.67-.77c1.69-.09 2.81-1.33 2.72-3.02l-1.64-31.21c-.09-1.69-1.33-2.81-3.02-2.72l-14.67.77Z" style="fill:none;stroke:#fff;stroke-linejoin:round;stroke-width:3px"/><path d="M331.68 283.67c-.99.05-2.07-.2-2.5-.59l-11.35-10.22c-.57-.51-1.24-1.68-1.28-2.54l-4.57-87.29c-.02-.39.49-.75 1.12-.79l85.56-4.48c.99-.05 2.07.2 2.5.59l11.35 10.22c.51.46.94 1.58.99 2.56l4.57 87.29c.03.6-.43.75-.83.77l-85.56 4.48Zm33.02-79.89c-1.2.06-2.81 1.24-2.72 3.02l1.64 31.21c.09 1.78 1.82 2.78 3.02 2.72l14.67-.77c1.69-.09 2.81-1.33 2.72-3.02l-1.64-31.21c-.09-1.69-1.33-2.81-3.02-2.72l-14.67.77Z" style="fill:none;stroke:#fff;stroke-linejoin:round;stroke-width:3px"/><path d="M331.68 283.67c-.99.05-2.07-.2-2.5-.59l-11.35-10.22c-.57-.51-1.24-1.68-1.28-2.54l-4.57-87.29c-.02-.39.49-.75 1.12-.79l85.56-4.48c.99-.05 2.07.2 2.5.59l11.35 10.22c.51.46.94 1.58.99 2.56l4.57 87.29c.03.6-.43.75-.83.77l-85.56 4.48Zm33.02-79.89c-1.2.06-2.81 1.24-2.72 3.02l1.64 31.21c.09 1.78 1.82 2.78 3.02 2.72l14.67-.77c1.69-.09 2.81-1.33 2.72-3.02l-1.64-31.21c-.09-1.69-1.33-2.81-3.02-2.72l-14.67.77Zm85.02 75.13c-.83.04-1.75-.16-2.09-.46l-9.87-8.57c-.4-.35-.77-1.26-.81-2.02l-2.68-51.22c-.08-1.51-1.45-2.5-2.64-2.44l-9.15.48c-.14 0-.52-.2-.53-.43l-1-19.09c-.02-.29.34-.78.53-.85l9.08-.47c1.18-.06 2.45-1.18 2.37-2.58l-.84-16.07c-.02-.33.2-.83.59-.85l40.97-2.15c.18.05.66.53.67.78l.84 16.07c.07 1.4 1.2 2.39 2.63 2.32l30.07-1.58c.38-.02.66.45.67.78l1 19.09c0 .11.02.45-.61.48l-30.07 1.58c-1.45.08-2.45 1.21-2.37 2.7l1.22 23.19c.08 1.49 1.19 2.51 2.64 2.44l30.07-1.58c.63-.03.65.31.65.42l1.9 36.24c0 .11.02.45-.61.48l-62.65 3.28Z" style="fill:none;stroke:#fff;stroke-linejoin:round;stroke-width:3px"/><path d="M449.72 278.91c-.83.04-1.75-.16-2.09-.46l-9.87-8.57c-.4-.35-.77-1.26-.81-2.02l-2.68-51.22c-.08-1.51-1.45-2.5-2.64-2.44l-9.15.48c-.14 0-.52-.2-.53-.43l-1-19.09c-.02-.29.34-.78.53-.85l9.08-.47c1.18-.06 2.45-1.18 2.37-2.58l-.84-16.07c-.02-.33.2-.83.59-.85l40.97-2.15c.18.05.66.53.67.78l.84 16.07c.07 1.4 1.2 2.39 2.63 2.32l30.07-1.58c.38-.02.66.45.67.78l1 19.09c0 .11.02.45-.61.48l-30.07 1.58c-1.45.08-2.45 1.21-2.37 2.7l1.22 23.19c.08 1.49 1.19 2.51 2.64 2.44l30.07-1.58c.63-.03.65.31.65.42l1.9 36.24c0 .11.02.45-.61.48l-62.65 3.28Z" style="fill:none;stroke:#fff;stroke-linejoin:round;stroke-width:3px"/><path d="M449.72 278.91c-.83.04-1.75-.16-2.09-.46l-9.87-8.57c-.4-.35-.77-1.26-.81-2.02l-2.68-51.22c-.08-1.51-1.45-2.5-2.64-2.44l-9.15.48c-.14 0-.52-.2-.53-.43l-1-19.09c-.02-.29.34-.78.53-.85l9.08-.47c1.18-.06 2.45-1.18 2.37-2.58l-.84-16.07c-.02-.33.2-.83.59-.85l40.97-2.15c.18.05.66.53.67.78l.84 16.07c.07 1.4 1.2 2.39 2.63 2.32l30.07-1.58c.38-.02.66.45.67.78l1 19.09c0 .11.02.45-.61.48l-30.07 1.58c-1.45.08-2.45 1.21-2.37 2.7l1.22 23.19c.08 1.49 1.19 2.51 2.64 2.44l30.07-1.58c.63-.03.65.31.65.42l1.9 36.24c0 .11.02.45-.61.48l-62.65 3.28Z" style="fill:none;stroke:#fff;stroke-linejoin:round;stroke-width:3px"/><path d="M258.72 293.44c.42-.02.73.24.75.62l2.16 41.21c.02.44-.08.83-.36 1.13l-5.59 5.71c-.28.29-.7.42-1.18.45l-42.68 2.24c-.48.03-.79-.24-.81-.62l-.9-17.1c-.01-.28.27-.68.74-.7l23.68-1.24c.42-.02.88-.32.86-.76l-1.52-28.96c-.02-.39.27-.68.69-.7l24.16-1.27Zm-32.54 27.15c.02.39-.45.69-.74.7l-14.81.78c-.48.03-.79-.24-.81-.62l-1.3-24.71c-.02-.39.27-.68.74-.7l14.81-.78c.3-.02.79.23.81.62l1.3 24.71Zm86.01-29.95c.48-.03.8.35.81.62l2.49 47.44c.02.39-.26.68-.74.7l-48.56 2.54c-.42.02-.73-.24-.75-.62l-1.08-20.52c-.02-.44.26-.73.68-.75l21.88-1.15c.48-.03.76-.32.74-.7l-.64-12.3c-.02-.39-.34-.65-.81-.62l-21.88 1.15c-.42.02-.73-.24-.76-.68l-.62-11.86c-.01-.28.26-.68.69-.7l48.56-2.54Zm54.44-2.86c.42-.02.73.24.75.62l2.16 41.21c.02.44-.08.83-.36 1.13l-5.59 5.71c-.28.29-.88.43-1.18.45l-42.68 2.24c-.48.03-.79-.24-.81-.62l-.9-17.1c-.01-.28.27-.68.74-.7l27.58-1.45c.42-.02.7-.31.68-.75l-1.52-28.96c-.02-.39.27-.68.75-.7l20.38-1.07Zm-24.87 12.92c.01.28-.27.68-.74.7l-23.2 1.22c-.48.03-.8-.35-.81-.62l-.57-10.92c-.01-.28.27-.68.74-.7l23.2-1.22c.48-.03.8.35.81.62l.57 10.92Zm.72 13.79c.02.39-.27.68-.74.7l-23.2 1.22c-.48.03-.79-.24-.81-.62l-.43-8.27c-.02-.44.26-.84.74-.87l23.2-1.22c.48-.03.8.34.82.79l.43 8.27Zm69.42-20.88c.42-.02.73.24.76.68l2.07 39.55c.02.39-.26.68-.68.7l-40.46 2.12c-.48.03-.79-.24-.81-.62l-.74-14.07c-.02-.39.27-.68.74-.7l19.6-1.03c.48-.03.88-.49.86-.76l-.12-2.21c-.02-.39-.46-.64-.93-.62l-19.6 1.03c-.48.03-.8-.4-.82-.68l-.36-6.89c-.02-.39.27-.68.74-.7l19.6-1.03c.48-.03.88-.32.86-.76l-.11-2.04c-.02-.44-.46-.69-.94-.67l-19.6 1.03c-.48.03-.79-.24-.81-.62l-.46-8.83c-.02-.44.26-.73.74-.76l40.46-2.12Zm46.79-3.05c.42-.02.73.24.76.68l1.8 34.31c.02.39-.25.95-.54 1.24l-4.39 4.54c-.29.29-.88.43-1.18.45l-36.45 1.91c-.42.02-.73-.24-.75-.62L417.2 319c-.02-.39.26-.68.68-.7l23.68-1.24c.48-.03.77-.32.74-.76l-1.26-24.11c-.02-.44.26-.73.68-.76l16.96-.89Zm-31.21 23.93c.02.39-.27.68-.74.7l-8.99.47c-.42.02-.73-.24-.75-.62l-1.13-21.51c-.02-.44.26-.73.68-.76l8.99-.47c.48-.03.79.24.82.68l1.13 21.51Zm11.51-.61c.02.39-.27.68-.69.7l-6.89.36c-.48.03-.79-.24-.81-.62l-1.13-21.51c-.02-.44.26-.73.74-.76l6.89-.36c.42-.02.73.24.76.68l1.13 21.51Zm76.92-.51c.02.37-.27.65-.75.68l-22.78 1.19c-.3.02-.71.3-.69.67l.65 12.37c.02.37-.27.65-.75.68l-26.08 1.37c-.42.02-.73-.23-.75-.6l-2.39-45.66c-.01-.27.27-.65.69-.68l26.08-1.37c.48-.03.8.33.81.6l.56 10.78c.02.37.45.62.75.6l22.78-1.19c.48-.03.8.38.82.65l1.04 19.91Z" style="fill:none;stroke:#27272a;stroke-linejoin:round;stroke-width:6px"/><path d="M258.72 293.44c.42-.02.73.24.75.62l2.16 41.21c.02.44-.08.83-.36 1.13l-5.59 5.71c-.28.29-.7.42-1.18.45l-42.68 2.24c-.48.03-.79-.24-.81-.62l-.9-17.1c-.01-.28.27-.68.74-.7l23.68-1.24c.42-.02.88-.32.86-.76l-1.52-28.96c-.02-.39.27-.68.69-.7l24.16-1.27Zm-32.54 27.15c.02.39-.45.69-.74.7l-14.81.78c-.48.03-.79-.24-.81-.62l-1.3-24.71c-.02-.39.27-.68.74-.7l14.81-.78c.3-.02.79.23.81.62l1.3 24.71Zm86.01-29.95c.48-.03.8.35.81.62l2.49 47.44c.02.39-.26.68-.74.7l-48.56 2.54c-.42.02-.73-.24-.75-.62l-1.08-20.52c-.02-.44.26-.73.68-.75l21.88-1.15c.48-.03.76-.32.74-.7l-.64-12.3c-.02-.39-.34-.65-.81-.62l-21.88 1.15c-.42.02-.73-.24-.76-.68l-.62-11.86c-.01-.28.26-.68.69-.7l48.56-2.54Zm54.44-2.86c.42-.02.73.24.75.62l2.16 41.21c.02.44-.08.83-.36 1.13l-5.59 5.71c-.28.29-.88.43-1.18.45l-42.68 2.24c-.48.03-.79-.24-.81-.62l-.9-17.1c-.01-.28.27-.68.74-.7l27.58-1.45c.42-.02.7-.31.68-.75l-1.52-28.96c-.02-.39.27-.68.75-.7l20.38-1.07Zm-24.87 12.92c.01.28-.27.68-.74.7l-23.2 1.22c-.48.03-.8-.35-.81-.62l-.57-10.92c-.01-.28.27-.68.74-.7l23.2-1.22c.48-.03.8.35.81.62l.57 10.92Zm.72 13.79c.02.39-.27.68-.74.7l-23.2 1.22c-.48.03-.79-.24-.81-.62l-.43-8.27c-.02-.44.26-.84.74-.87l23.2-1.22c.48-.03.8.34.82.79l.43 8.27Zm69.42-20.88c.42-.02.73.24.76.68l2.07 39.55c.02.39-.26.68-.68.7l-40.46 2.12c-.48.03-.79-.24-.81-.62l-.74-14.07c-.02-.39.27-.68.74-.7l19.6-1.03c.48-.03.88-.49.86-.76l-.12-2.21c-.02-.39-.46-.64-.93-.62l-19.6 1.03c-.48.03-.8-.4-.82-.68l-.36-6.89c-.02-.39.27-.68.74-.7l19.6-1.03c.48-.03.88-.32.86-.76l-.11-2.04c-.02-.44-.46-.69-.94-.67l-19.6 1.03c-.48.03-.79-.24-.81-.62l-.46-8.83c-.02-.44.26-.73.74-.76l40.46-2.12Zm46.79-3.05c.42-.02.73.24.76.68l1.8 34.31c.02.39-.25.95-.54 1.24l-4.39 4.54c-.29.29-.88.43-1.18.45l-36.45 1.91c-.42.02-.73-.24-.75-.62L417.2 319c-.02-.39.26-.68.68-.7l23.68-1.24c.48-.03.77-.32.74-.76l-1.26-24.11c-.02-.44.26-.73.68-.76l16.96-.89Zm-31.21 23.93c.02.39-.27.68-.74.7l-8.99.47c-.42.02-.73-.24-.75-.62l-1.13-21.51c-.02-.44.26-.73.68-.76l8.99-.47c.48-.03.79.24.82.68l1.13 21.51Zm11.51-.61c.02.39-.27.68-.69.7l-6.89.36c-.48.03-.79-.24-.81-.62l-1.13-21.51c-.02-.44.26-.73.74-.76l6.89-.36c.42-.02.73.24.76.68l1.13 21.51Zm76.92-.51c.02.37-.27.65-.75.68l-22.78 1.19c-.3.02-.71.3-.69.67l.65 12.37c.02.37-.27.65-.75.68l-26.08 1.37c-.42.02-.73-.23-.75-.6l-2.39-45.66c-.01-.27.27-.65.69-.68l26.08-1.37c.48-.03.8.33.81.6l.56 10.78c.02.37.45.62.75.6l22.78-1.19c.48-.03.8.38.82.65l1.04 19.91Z" style="fill:#fff"/><path d="M320.47 53.09c-1.7-12.73-15.34-2.82-25.79.42-7.54-19.56-40.61-23.17-49.58-3.03-8.53-8.23-16.47-16.69-20.55-3.35-.31 4.92-12.75 29.07.64 29.57 2.67.02 9.41-3.02 19.41-6.76 8.41 19.75 39.67 23.19 49.59 2.99 8.02 7.93 16.48 16.85 20.68 2.88 2.59-9.9 5.04-17.09 5.59-22.73Zm194.17 115.85c-.6-1.65-1.52-3.15-2.73-4.44-1.05-1.12-2.29-2.04-3.65-2.71l-3.42-8.93c17.72-6.75 4.8-29.79-11.05-20.52.07-4.79-1.76-9.38-4.54-13.23 5.06-13.92-15.07-21.68-21.58-9.23-5.12.61-8.42 2.48-11.63 4.33-13.33-5.66-22.93 13.35-10.54 20.8.52 5.07 1.97 9.1 4.91 13.06-18.13 3.23-13.04 28.79 4.79 22.82l3.07 9.01c-6.93 16.05 17.98 25.94 23.96 9.56 4.62-1.18 9.81-3.06 13.77-4.97 9.85 6.29 23.05-4.69 18.64-15.55Zm-370.1 139.12c-1.08-24.81-34.41-35.01-49.76-14.97-12.31-3.76-15.25 19.41-6.05 20.09.66 9.88 6.96 18.93 16 23.01l-12.66 42.72c-.63 2.12.58 4.34 2.7 4.97 2.06.63 4.35-.56 4.97-2.7l12.66-42.71c9.92 1.54 19.53-2.25 26.22-10.12 8.1 4.62 11.86-9.73 11.65-14.11-.65-4.01-3.58-5.48-5.73-6.18Z" style="fill:#27272a"/><path d="M316.47 49.09c-1.7-12.73-15.34-2.82-25.79.42-7.54-19.56-40.61-23.17-49.58-3.03-8.53-8.23-16.47-16.69-20.55-3.35-.31 4.92-12.75 29.07.64 29.57 2.67.02 9.41-3.02 19.41-6.76 8.41 19.75 39.67 23.19 49.59 2.99 8.02 7.93 16.48 16.85 20.68 2.88 2.59-9.9 5.04-17.09 5.59-22.73Zm194.17 115.85c-.6-1.65-1.52-3.15-2.73-4.44-1.05-1.12-2.29-2.04-3.65-2.71l-3.42-8.93c17.72-6.75 4.8-29.79-11.05-20.52.07-4.79-1.76-9.38-4.54-13.23 5.06-13.92-15.07-21.68-21.58-9.23-5.12.61-8.42 2.48-11.63 4.33-13.33-5.66-22.93 13.35-10.54 20.8.52 5.07 1.97 9.1 4.91 13.06-18.13 3.23-13.04 28.79 4.79 22.82l3.07 9.01c-6.93 16.05 17.98 25.94 23.96 9.56 4.62-1.18 9.81-3.06 13.77-4.97 9.85 6.29 23.05-4.69 18.64-15.55Zm-370.1 139.12c-1.08-24.81-34.41-35.01-49.76-14.97-12.31-3.76-15.25 19.41-6.05 20.09.66 9.88 6.96 18.93 16 23.01l-12.66 42.72c-.63 2.12.58 4.34 2.7 4.97 2.06.63 4.35-.56 4.97-2.7l12.66-42.71c9.92 1.54 19.53-2.25 26.22-10.12 8.1 4.62 11.86-9.73 11.65-14.11-.65-4.01-3.58-5.48-5.73-6.18Z" style="fill:#fff"/><path d="M268.36 43.58c3.16 7.96 8.89 23.43 11.81 29.73.16.35.3.72.61.98-.06.04-.12.07-.18.11-4.28 2.78-9.9 4.49-15.01 4.31.25-.4-.12-.74-.33-1.26-3.87-9.66-7.79-19.29-11.68-28.94-.02-.06-.05-.12-.07-.18l-.87-2.16c2.27.37 2.61-.78 4.51-1.46 3.33-1.19 7.71-2.11 11.14-1.31.02.06.05.12.07.18Z" style="fill:#facc15"/><path d="M253.58 48.5c3.89 9.65 7.81 19.29 11.68 28.94.21.53.59.86.33 1.26-9.91-.34-19.82-8.07-22.57-17.62 3.92 1.38 1.07-.39 3.27-6.24.8-2.12 4.4-8.28 7.21-6.53.02.06.05.12.07.18Zm33.76 3.41c.46 1.23.36 1.74.54 2.64.01.06 0 .13.02.2.19 1.01.41 3.23.45 4.29.04.92.27 1.8.15 2.73-.46 3.51-3.14 8.17-5.62 10.71-.76.77-1.16 1.18-2.1 1.8-.06.04-.12.07-.18.11.06-.04.12-.07.18-.11-.31-.26-.44-.62-.61-.98-2.92-6.3-8.66-21.77-11.81-29.73-.02-.06-.05-.12-.07-.18s-.05-.12-.07-.18-.05-.12-.07-.18c5.14.43 9.48 2.17 13.63 5.16 1.93 1.39 2.6 3.5 5.57 3.71Z" style="fill:#fb923c"/><path d="M242.78 58.03c-.02 1.05-.14 1.58.14 2.71-.33.2-.7.33-1.06.46-3.01 1.08-19.27 7.64-20.72 7.51-1.82-.17-2.54-1.81-2.46-3.47.05-1.08 4.93-18.65 5.66-20.85.57.24 1.44.28 1.95.53.97.47 13.53 12.09 14.39 12.5.56.27 1.47.29 2.08.6Zm68.98-5.08c-.53 2.34-5.01 19.36-5.51 20.29-.95 1.75-2.18 2.43-3.97 1.36-.77-.46-10.99-10.08-12.82-11.89-.33-.32-.62-.65-.97-.94.12-.94-.11-1.81-.15-2.73.68 0 1.58.5 2.13.52 1.01.04 17.35-6.95 18.9-7.06.88-.06 1.55.23 2.38.45Z" style="fill:#facc15"/><path d="M311.76 52.95c-.83-.22-1.5-.51-2.38-.45-1.55.11-17.9 7.09-18.9 7.06-.55-.02-1.45-.53-2.13-.52-.04-1.06-.26-3.28-.45-4.29-.01-.06 0-.13-.02-.2.35-.04.77-.12 1.11-.22 4.1-1.18 18.89-7.61 20.87-7.61 3.97-.02 2.38 4.1 1.9 6.23Zm-68.43.41c-.19 1.15-.53 3.64-.55 4.67-.61-.31-1.52-.33-2.08-.6-.86-.41-13.42-12.03-14.39-12.5-.51-.25-1.38-.29-1.95-.53.63-1.9 1.01-5.06 4.06-3.89 1.14.44 10.71 9.86 13.43 11.95.47.36.87.8 1.49.91Zm22.28-16.71c.28.42.35.89.53 1.35.64 1.69 1.34 3.36 2 5.04.02.06.05.12.07.18s.05.12.07.18.05.12.07.18c-.02-.06-.05-.12-.07-.18-3.44-.8-7.82.12-11.14 1.31-1.9.68-2.24 1.83-4.51 1.46-.53-1.32-1.09-2.63-1.59-3.95-.15-.38-.24-.81-.47-1.15.05-.04.1-.07.14-.11 3.66-2.58 10.42-4.43 14.9-4.31Z" style="fill:#fef08a"/><path d="M287.34 51.91c-2.96-.21-3.64-2.32-5.57-3.71-4.15-2.99-8.49-4.74-13.63-5.16.02.06.05.12.07.18-.02-.06-.05-.12-.07-.18-.67-1.68-1.36-3.35-2-5.04-.17-.46-.25-.93-.53-1.35 1.67.05 6.39 1.3 8.08 1.96 5.92 2.33 11.4 7.22 13.65 13.3Zm-34.7-5.75.87 2.16c.02.06.05.12.07.18-.02-.06-.05-.12-.07-.18-2.81-1.75-6.42 4.41-7.21 6.53-2.2 5.85.65 7.62-3.27 6.24-.03-.12-.07-.24-.1-.36-.28-1.13-.16-1.66-.14-2.71.02-1.03.35-3.52.55-4.67.89-5.31 2.65-8.96 7.25-12.29.05-.04.1-.07.14-.11-.05.03-.1.07-.14.11.24.34.33.77.47 1.15.51 1.33 1.07 2.63 1.59 3.95Z" style="fill:#fed7aa"/><path d="M282.88 72.48c2.48-2.54 5.17-7.19 5.62-10.71.12-.94-.11-1.81-.15-2.73-.04-1.06-.26-3.28-.45-4.29-.01-.06 0-.13-.02-.2-.17-.9-.08-1.41-.54-2.64-2.26-6.08-7.73-10.97-13.65-13.3-1.69-.67-6.4-1.91-8.08-1.96-4.48-.13-11.24 1.73-14.9 4.31-.05.03-.1.07-.14.11-4.6 3.33-6.36 6.98-7.25 12.29-.19 1.15-.53 3.64-.55 4.67-.02 1.05-.14 1.58.14 2.71.03.12.07.24.1.36 2.75 9.55 12.66 17.27 22.57 17.62 5.11.18 10.72-1.54 15.01-4.31.06-.04.12-.07.18-.11.93-.62 1.34-1.03 2.1-1.8Zm-41.04-20.03c-2.72-2.09-12.29-11.51-13.43-11.95-3.05-1.16-3.42 2-4.06 3.89-.73 2.19-5.61 19.77-5.66 20.85-.08 1.66.63 3.29 2.46 3.47 1.45.14 17.71-6.42 20.72-7.51" style="fill:none;stroke:#27272a;stroke-linecap:round;stroke-linejoin:round;stroke-width:3.26px"/><path d="M251.04 42.21c.51 1.33 1.07 2.63 1.59 3.95l.87 2.16c.02.06.05.12.07.18 3.89 9.65 7.81 19.29 11.68 28.94m14.92-4.13c-2.92-6.3-8.66-21.77-11.81-29.73-.02-.06-.05-.12-.07-.18s-.05-.12-.07-.18-.05-.12-.07-.18c-.67-1.68-1.36-3.35-2-5.04m23.32 24.71c1.83 1.8 12.05 11.42 12.82 11.89 1.79 1.07 3.02.39 3.97-1.36.5-.92 4.99-17.94 5.51-20.29.48-2.14 2.06-6.25-1.9-6.23-1.98 0-16.77 6.44-20.87 7.61" style="fill:none;stroke:#27272a;stroke-linecap:round;stroke-linejoin:round;stroke-width:3.26px"/><path d="M503.12 132.42c3.33 3.09 3.04 9.3-1.82 11.99-1.01.56-5.46 1.67-5.59 2.25l5.23 13.66-.15.41c-8.81-2.36-15.06 8.61-8.54 14.99l-.29.3c-4.52 2.46-11.53 4.91-16.58 6.01l-.44-.03c.14-1.34-.02-2.69-.48-3.95-.11-.3-.24-.59-.38-.88-.03-.06-.06-.11-.09-.17 13.27-4.02 7.99-5.28 12.06-12.4 1.53-2.67 4.85-5.71 5.62-7.05 2.63-4.61-1.87-7.87-1.01-11.24 1.09-4.31 11.14-2.79 8.08-13.05 1.52-.4 2.89 0 4.37-.84Z" style="fill:#f97316"/><path d="M452.07 114.64c-.29 1.2.12 1.24-.71 1.63-3.97-.48-8.49 2.48-7.52 6.91.99 4.55 3.45 3.3 4.75 4.4 1.93 1.63.87 5.36 2.69 9.98 2.52 6.38 8.67 8.8 5.53 10.9-2.61 1.75-13.17 2.72-13.87 8.09-.43 3.29 1.73 4.73 2.47 7.33-5.95-1.05-8.57-7.53-4.83-12.29 2.45-3.12 9.23-3.85 12.63-5.95-5.41-5.12-7.56-9.68-7.88-17.11-11.28-5.01-3.89-19.82 6.75-13.9Z" style="fill:#fed7aa"/><path d="M472.43 174.83c.63.64 1.15 1.36 1.56 2.16.03.06.06.11.09.17.14.29.27.58.38.88.46 1.26.62 2.62.48 3.95-.55 5.33-5.65 8.98-10.87 7.78-.92-3.41-3.52-4.93-2.72-9.07.31-1.61 1.85-3.68 3.31-4.45 3.84-2.03 5.49-.18 7.64-1.56.05.04.09.09.14.13Zm32.56-11.59c.83.88 1.47 1.92 1.89 3.06 2.42 6.68-3.61 13.39-10.51 11.7-.28-.49-.47-1.91-.52-2.01-.25-.52-4.96-6.27-.16-10.43 4.27-3.71 7.11-.92 9.3-2.32Z" style="fill:#facc15"/><path d="M479.92 105.91s-.08-.1-.13-.14c-2.06 1.45-3.87.02-6.86 2.12-2.78 1.94-1.54 4.55-4.55 5.37-1.29.35-7.42-.24-12.86 4.48-1.07.3-2.26-1.24-4.15-1.47.83-.39.42-.43.71-1.63.85.17 6.74-5.08 14.12-4.87 2.22-5.86 8.79-8.7 13.61-3.99.04.04.08.1.13.14Z" style="fill:#fed7aa"/><path d="M472.43 174.83s-.09-.09-.14-.13c-2.15 1.38-3.8-.47-7.64 1.56-1.46.77-3 2.84-3.31 4.45-.79 4.14 1.8 5.67 2.72 9.07-6.06-1.39-8.87-8.43-5.44-13.62.04-.05.07-.11.11-.16.62-.9 1.39-1.66 2.29-2.28 3.51-2.4 8.22-1.99 11.26.98.05.04.09.09.14.13Zm28.36-14.1c1.6.43 3.06 1.3 4.2 2.51-2.19 1.41-5.03-1.39-9.3 2.32-4.8 4.17-.09 9.91.16 10.43.04.09.24 1.51.52 2.01-1.55-.38-2.97-1.17-4.12-2.29-6.52-6.38-.28-17.35 8.54-14.99Z" style="fill:#fef08a"/><path d="M503.12 132.42c-1.48.85-2.86.45-4.37.84-6.88 1.8-12.59 6.93-13.07.62 5.92-.97 11.89-6.6 17.45-1.46Zm-42.09 41.3c-.9.62-1.67 1.38-2.29 2.28-.04.05-.07.11-.11.16.04-.05.07-.11.11-.16l-.31-.27-4.72-13.85-.11-.07c.21-.13 2.03-3.4 3.98-.72 1.11 1.54.99 4.22 1.05 4.45.75 2.74 1.72 5.42 2.4 8.19Z" style="fill:#fed7aa"/><path d="M451.36 116.27c1.89.23 3.08 1.77 4.15 1.47 5.44-4.71 11.57-4.13 12.86-4.48 3.02-.81 1.78-3.42 4.55-5.37 2.99-2.09 4.81-.67 6.86-2.12.04.04.08.1.13.14 4.09 4.21.81 9.29.84 9.91 6.89 8.53 4.56 13.5 4.91 18.05.49 6.32 6.19 1.18 13.07-.62 3.06 10.26-6.99 8.75-8.08 13.05-.86 3.37 3.64 6.63 1.01 11.24-.77 1.34-4.09 4.38-5.62 7.05-4.07 7.12 1.21 8.38-12.06 12.4.03.06.06.11.09.17-.03-.06-.06-.11-.09-.17-.41-.8-.94-1.52-1.56-2.16-.04-.05-.09-.09-.14-.13-3.04-2.97-7.76-3.37-11.26-.98-.68-2.77-1.65-5.45-2.4-8.19-.06-.22.06-2.91-1.05-4.45-1.94-2.68-3.77.58-3.98.72l.11.07-.11-.07c-.36.23-6.44 2.39-8.19 2.08-.74-2.6-2.9-4.04-2.47-7.33.7-5.37 11.27-6.34 13.87-8.09 3.14-2.11-3.01-4.52-5.53-10.9-1.82-4.62-.76-8.36-2.69-9.98-1.31-1.1-3.76.15-4.75-4.4-.97-4.42 3.55-7.38 7.52-6.91Z" style="fill:#fb923c"/><path d="M455.95 124.07c2.09-.8 3.23 2.14 1.68 3.1-2.12 1.32-3.91-2.25-1.68-3.1Zm13.46-4.88c2.76-1.1 3.37 3.65.47 3.36-1.48-.15-2.02-2.74-.47-3.36Z" style="fill:#27272a"/><path d="M464.16 128.53c8.9-4.57 17.06 6.45 8.69 12.71-9.7 7.26-19.84-6.99-8.69-12.71Z" style="fill:#fefefe;stroke:#27272a;stroke-linecap:round;stroke-linejoin:round;stroke-width:2.65px"/><path d="M463.98 131.37c1.35-.87 5.65-2.58 6.18-.11.27 1.26-1.8 3-.77 4.55 1.14 1.72 2.44-1.51 3.48-.15.86 1.13-.63 3.66-4.23 2.93-3.05 4.49-7.32-1.17-2.45-.6 2.51-3.15-3.38-2.53-3.01-5.5.04-.33.53-.95.8-1.13Z" style="fill:#27272a"/><path d="M506.87 166.3c-.41-1.14-1.06-2.18-1.89-3.06-1.14-1.21-2.59-2.08-4.2-2.51-8.81-2.36-15.06 8.61-8.54 14.99 1.14 1.12 2.56 1.91 4.12 2.29 6.9 1.69 12.93-5.02 10.51-11.7Zm-32.41 11.74c-.11-.3-.24-.59-.38-.88-.03-.06-.06-.11-.09-.17-.41-.8-.94-1.52-1.56-2.16-.04-.05-.09-.09-.14-.13-3.04-2.97-7.76-3.37-11.26-.98-.9.62-1.67 1.38-2.29 2.28-.04.05-.07.11-.11.16-3.44 5.19-.62 12.23 5.44 13.62 5.22 1.2 10.32-2.45 10.87-7.78.14-1.34-.02-2.69-.48-3.95Zm.92 3.99c5.05-1.1 12.06-3.55 16.58-6.01" style="fill:none;stroke:#27272a;stroke-linecap:round;stroke-linejoin:round;stroke-width:2.65px"/><path d="m458.43 175.73-4.72-13.85-.11-.07c-.36.23-6.44 2.39-8.19 2.08-5.95-1.05-8.57-7.53-4.83-12.29 2.45-3.12 9.23-3.85 12.63-5.95-5.41-5.12-7.56-9.68-7.88-17.11-11.28-5.01-3.89-19.82 6.75-13.9.85.17 6.74-5.08 14.12-4.87 2.22-5.86 8.79-8.7 13.61-3.99.04.04.08.1.13.14 4.09 4.21.81 9.29.84 9.91 6.89 8.53 4.56 13.5 4.91 18.05 5.92-.97 11.89-6.6 17.45-1.46 3.33 3.09 3.04 9.3-1.82 11.99-1.01.56-5.46 1.67-5.59 2.25l5.23 13.66" style="fill:none;stroke:#27272a;stroke-linecap:round;stroke-linejoin:round;stroke-width:2.65px"/><path d="M133.32 319.72c-.08-.02-.16-.05-.24-.08l-.63 1.05c-15.25 19.47-43.3 8.46-43.8-13.04-.01-.45-.01-.92.05-1.36 7.8 2.8 34.62 10.59 44.38 13.35.08.02.16.05.24.08Zm3.33-12.62c-7.74-2.76-26.87-8.26-36.06-10.91.7-4.03 8.78-8.25 12.63-9.88 3.56-1.51 5.64-.59 5.74-3.18 10.5 2.74 17.36 11.74 17.68 22.59.01.46.03.92 0 1.38Z" style="fill:#facc15"/><path d="M118.96 283.13c-.1 2.59-2.18 1.66-5.74 3.18-3.85 1.64-11.93 5.85-12.63 9.88-2.78-.8-5.54-1.82-8.34-2.52.04-.57.49-.78.83-1.17 7.08-8.03 15.06-12.2 25.88-9.37Z" style="fill:#fef08a"/><path d="M100.59 296.19c9.19 2.65 28.31 8.15 36.06 10.91 2.35.84 5.19.8 5.68 3.79.28 1.76-2.43 9.63-4.17 10.34-.23.1-4.12-1.3-4.83-1.5-.08-.02-.16-.05-.24-.08-9.77-2.76-36.58-10.55-44.38-13.35-4.45-1.6-6.23-1.14-5.17-6.73 1.74-9.13 4.66-6.92 8.72-5.9 2.8.7 5.56 1.72 8.34 2.52Z" style="fill:#fb923c;stroke:#27272a;stroke-linecap:round;stroke-linejoin:round;stroke-width:2.65px"/><path d="M105.19 331.2 91.9 376.05" style="fill:none;stroke:#27272a;stroke-linecap:round;stroke-miterlimit:10;stroke-width:2.65px"/><path d="M88.65 307.65c.5 21.5 28.55 32.5 43.8 13.04m4.19-14.97c-.32-10.85-7.18-19.84-17.68-22.59-10.83-2.83-18.8 1.34-25.88 9.37" style="fill:none;stroke:#27272a;stroke-linecap:round;stroke-linejoin:round;stroke-width:2.65px"/></svg>
